<?xml version="1.0" encoding="UTF-8"?>
<!DOCTYPE svg PUBLIC "-//W3C//DTD SVG 1.1//EN" "http://www.w3.org/Graphics/SVG/1.1/DTD/svg11.dtd">
<!-- Creator: CorelDRAW 2020 (64-Bit) -->
<svg xmlns="http://www.w3.org/2000/svg" xml:space="preserve" width="67.4735mm" height="14.5626mm" version="1.1" style="shape-rendering:geometricPrecision; text-rendering:geometricPrecision; image-rendering:optimizeQuality; fill-rule:evenodd; clip-rule:evenodd"
viewBox="0 0 5626.34 1214.31"
 xmlns:xlink="http://www.w3.org/1999/xlink"
 xmlns:xodm="http://www.corel.com/coreldraw/odm/2003">
 <defs>
  <style type="text/css">
   <![CDATA[
    .fil0 {fill:#003087;fill-rule:nonzero}
    .fil1 {fill:white;fill-rule:nonzero}
   ]]>
  </style>
 </defs>
 <g id="Layer_x0020_1">
  <metadata id="CorelCorpID_0Corel-Layer"/>
  <g id="Haridus-_x0020_ja_x0020_Teadusministeerium_vapp_est_rgb-1v.svg">
   <g>
    <g>
     <g>
      <path class="fil0" d="M5505.49 497.23l-38.51 0 0 175.99 30.5 0 0 -116.16 0.92 -0.14 37.9 116.31 20.71 0 37.76 -115.56 0.92 0.14 0 115.41 30.64 0 0 -175.99 -38.36 0 -40.94 138.37 -0.89 0 -40.65 -138.37zm-112.83 0l0 115.17c0,12.68 -3.09,22.52 -9.31,29.56 -6.19,7.03 -14.63,10.56 -25.28,10.56 -10.58,0 -19,-3.53 -25.23,-10.56 -6.26,-7.04 -9.38,-16.87 -9.38,-29.56l0 -115.17 -30.5 0 0 115.41c0,19.85 6,35.31 17.99,46.45 11.97,11.12 27.68,16.68 47.13,16.68 19.43,0 35.15,-5.56 47.13,-16.68 11.97,-11.15 17.96,-26.61 17.96,-46.45l0 -115.41 -30.5 0zm-143.35 0l-30.5 0 0 175.99 30.5 0 0 -175.99zm-160.59 23.25l28.26 0c8.87,0 15.52,2.69 19.94,8.03 4.43,5.32 6.65,12.52 6.65,21.58 0,9.16 -2.19,16.22 -6.57,21.15 -4.38,4.93 -11.05,7.4 -20.01,7.4l-28.26 0 0 -58.15 0 0zm30.82 81.43c8.07,0 14.26,2.57 18.59,7.71 4.33,5.13 6.5,12.33 6.5,21.61l0 15.85c0,5.22 0.12,10.36 0.36,15.39 0.27,5.05 0.9,8.61 1.91,10.73l31.57 0.01 0 -2.57c-1.31,-2.13 -2.2,-5.44 -2.66,-9.98 -0.43,-4.52 -0.68,-9.01 -0.68,-13.43l0 -16.18c0,-10.56 -2.1,-19.45 -6.34,-26.66 -4.23,-7.2 -11.09,-12.26 -20.54,-15.18 8.46,-3.92 14.88,-9.31 19.34,-16.17 4.42,-6.85 6.65,-14.94 6.65,-24.32 0,-16.22 -5.08,-28.86 -15.18,-37.92 -10.12,-9.06 -24.14,-13.58 -42.08,-13.58l-58.76 0 0 175.99 30.5 0 0 -71.3c0,-0.01 30.82,-0.01 30.82,-0.01zm-107.84 -31.87l-64.8 0 0 -49.56 75.82 0 0 -23.25 -106.35 0 0 175.99 106.35 0 0 -23.28 -75.82 0 0 -56.63 64.8 0 0 -23.27zm-148.04 0l-64.8 0 0 -49.56 75.82 0 0 -23.25 -106.35 0 0 175.99 106.35 0 0 -23.28 -75.82 0 0 -56.63 64.8 0 0 -23.27zm-124.62 -72.8l-120.56 0 0 23.25 44.57 0 0 152.74 30.53 0 0 -152.74 45.46 0 0 -23.25 0 0zm-170.78 148.21c-5.15,4.71 -12.74,7.08 -22.81,7.08 -9.36,0 -17.04,-2.46 -23.04,-7.35 -5.99,-4.9 -8.99,-12.91 -8.99,-24l-29.29 0 -0.46 0.89c-0.51,18.06 4.98,31.52 16.46,40.39 11.48,8.89 26.58,13.32 45.31,13.32 18.64,0 33.45,-4.35 44.5,-13.02 11.02,-8.71 16.53,-20.65 16.53,-35.8 0,-14.77 -4.38,-26.06 -13.15,-33.84 -8.75,-7.79 -22.36,-14.36 -40.78,-19.72 -13.7,-4.19 -22.74,-8.39 -27.12,-12.62 -4.38,-4.25 -6.57,-10.11 -6.57,-17.58 0,-7.27 2.24,-13.29 6.71,-18.03 4.49,-4.74 11.37,-7.1 20.62,-7.1 9.16,0 16.1,2.83 20.79,8.51 4.66,5.65 7.01,13.15 7.01,22.48l29.32 -0.01 0.29 -0.89c0.41,-16.73 -4.49,-29.8 -14.72,-39.23 -10.22,-9.4 -24.47,-14.11 -42.69,-14.11 -17.72,0 -31.79,4.47 -42.23,13.41 -10.41,8.97 -15.61,20.74 -15.61,35.31 0,14.99 4.34,26.27 13.05,33.81 8.72,7.55 22.65,13.98 41.76,19.31 12.5,4.11 21.08,8.41 25.77,12.86 4.69,4.48 7.04,10.32 7.04,17.55 0,7.55 -2.59,13.66 -7.71,18.37l0 0zm-122.95 -148.21l-30.5 0 0 175.99 30.5 0 0 -175.99zm-77.05 0l-30.65 0 0 121.45 -0.92 0.29 -67.53 -121.74 -30.51 0 0 175.99 30.5 0 0 -121.6 0.92 -0.32 67.53 121.92 30.65 0 0 -175.99zm-175.21 0l-30.5 0 0 175.99 30.5 0 0 -175.99zm-197.59 0l-38.52 0 0 175.99 30.53 0 0 -116.16 0.89 -0.14 37.92 116.31 20.69 0 37.77 -115.56 0.9 0.14 0 115.41 30.67 0 0 -175.99 -38.38 0 -40.92 138.37 -0.92 0 -40.63 -138.37zm-114.81 148.21c-5.12,4.71 -12.74,7.08 -22.81,7.08 -9.36,0 -17.04,-2.46 -23.03,-7.35 -6,-4.9 -9,-12.91 -9,-24l-29.29 0 -0.46 0.89c-0.51,18.06 4.98,31.52 16.46,40.39 11.48,8.89 26.58,13.32 45.31,13.32 18.64,0 33.48,-4.35 44.5,-13.02 11.02,-8.71 16.53,-20.65 16.53,-35.8 0,-14.77 -4.38,-26.06 -13.12,-33.84 -8.77,-7.79 -22.36,-14.36 -40.79,-19.72 -13.71,-4.19 -22.75,-8.39 -27.12,-12.62 -4.38,-4.25 -6.58,-10.11 -6.58,-17.58 0,-7.27 2.25,-13.29 6.72,-18.03 4.49,-4.74 11.36,-7.1 20.64,-7.1 9.16,0 16.08,2.83 20.76,8.51 4.69,5.65 7.04,13.15 7.04,22.48l29.29 -0.01 0.31 -0.89c0.38,-16.73 -4.52,-29.8 -14.74,-39.23 -10.22,-9.4 -24.43,-14.11 -42.66,-14.11 -17.74,0 -31.81,4.47 -42.23,13.41 -10.44,8.97 -15.63,20.74 -15.63,35.31 0,14.99 4.35,26.27 13.05,33.81 8.72,7.55 22.65,13.98 41.79,19.31 12.47,4.11 21.05,8.41 25.74,12.86 4.69,4.48 7.03,10.32 7.03,17.55 0,7.55 -2.56,13.66 -7.7,18.37l0 0zm-151.67 -148.21l0 115.17c0,12.68 -3.09,22.52 -9.28,29.56 -6.18,7.03 -14.62,10.56 -25.31,10.56 -10.56,0 -18.97,-3.53 -25.23,-10.56 -6.24,-7.04 -9.35,-16.87 -9.35,-29.56l0 -115.17 -30.53 0 0 115.41c0,19.85 6,35.31 17.98,46.45 11.99,11.12 27.7,16.68 47.13,16.68 19.44,0 35.15,-5.56 47.14,-16.68 11.98,-11.15 17.98,-26.61 17.98,-46.45l0 -115.41 -30.53 0zm-203.31 23.25c9.86,0 18.08,4.67 24.63,13.95 6.55,9.31 9.81,20.88 9.81,34.73l0 31.81c0,14.16 -3.26,25.86 -9.81,35.11 -6.55,9.24 -14.77,13.85 -24.63,13.85l-25.38 0 0 -129.46c0,0 25.38,0 25.38,0zm0 152.74c18.54,0 33.98,-6.72 46.38,-20.16 12.37,-13.46 18.59,-30.74 18.59,-51.89l0 -31.74c0,-21.15 -6.21,-38.45 -18.59,-51.97 -12.4,-13.48 -27.84,-20.23 -46.38,-20.23l-55.89 0 0 175.99 55.89 0zm-159.21 -133.08l0.89 0 22.21 70.09 -45.18 0 22.07 -70.09zm43.04 133.08l32.03 0 -58.61 -175.99 -31.57 0 -58.92 175.99 32.2 0 12.52 -39.74 59.68 0 12.68 39.74zm-155.12 -103.18l-64.82 0 0 -49.56 75.85 0 0 -23.25 -106.35 0 0 175.99 106.35 0 0 -23.28 -75.85 0 0 -56.63 64.82 0 0 -23.27zm-126 -116.77l-143.35 0 0 23.27 56.19 0 0 196.67 30.67 0.01 0 -196.67 56.49 0 0 -23.27zm-308.29 86.86l0.89 0 22.21 70.09 -45.17 0 22.06 -70.09zm43.04 133.08l32.03 0 -58.61 -175.99 -31.56 0 -58.93 175.99 32.17 0 12.54 -39.74 59.67 0 12.69 39.74zm-177.65 -54.48c0,10.27 -2.18,18.47 -6.57,24.58 -4.38,6.14 -9.94,9.21 -16.68,9.21 -7.85,0 -14.09,-2.58 -18.66,-7.7 -4.59,-5.13 -6.89,-12.88 -6.89,-23.26l-29.44 0 -0.31 0.89c-0.51,17.43 4.25,30.68 14.28,39.74 10.01,9.06 23.69,13.58 41.02,13.58 15.71,0 28.59,-5.13 38.67,-15.4 10.05,-10.27 15.1,-24.07 15.1,-41.4l0 -121.74 -30.53 0 0 121.5 0 0zm-178.09 -50.81l-67.38 0 0 23.26 67.38 0 0 -23.26zm-135.34 77.52c-5.13,4.71 -12.74,7.08 -22.82,7.08 -9.35,0 -17.04,-2.46 -23.03,-7.35 -6,-4.9 -8.99,-12.91 -8.99,-24l-29.29 0 -0.47 0.89c-0.5,18.06 4.99,31.52 16.46,40.39 11.48,8.89 26.59,13.32 45.32,13.32 18.64,0 33.47,-4.35 44.49,-13.02 11.02,-8.71 16.54,-20.65 16.54,-35.8 0,-14.77 -4.38,-26.06 -13.12,-33.84 -8.77,-7.79 -22.36,-14.36 -40.8,-19.72 -13.68,-4.19 -22.71,-8.39 -27.12,-12.62 -4.38,-4.25 -6.57,-10.11 -6.57,-17.58 0,-7.27 2.24,-13.29 6.74,-18.03 4.48,-4.74 11.34,-7.1 20.62,-7.1 9.16,0 16.08,2.83 20.76,8.51 4.69,5.65 7.04,13.15 7.04,22.48l29.29 -0.01 0.32 -0.89c0.38,-16.73 -4.52,-29.8 -14.74,-39.23 -10.22,-9.4 -24.44,-14.11 -42.66,-14.11 -17.74,0 -31.81,4.47 -42.23,13.41 -10.41,8.97 -15.64,20.74 -15.64,35.31 0,14.99 4.35,26.27 13.08,33.81 8.7,7.55 22.62,13.98 41.76,19.31 12.47,4.11 21.08,8.41 25.74,12.86 4.69,4.48 7.04,10.32 7.04,17.55 0,7.55 -2.56,13.66 -7.7,18.37l0 0zm-151.67 -148.21l0 115.17c0,12.68 -3.09,22.52 -9.28,29.56 -6.19,7.03 -14.63,10.56 -25.31,10.56 -10.56,0 -18.97,-3.53 -25.23,-10.56 -6.24,-7.04 -9.36,-16.87 -9.36,-29.56l0 -115.17 -30.52 0 0 115.41c0,19.85 5.99,35.31 17.98,46.45 11.99,11.12 27.7,16.68 47.13,16.68 19.43,0 35.15,-5.56 47.13,-16.68 11.99,-11.15 17.99,-26.61 17.99,-46.45l0 -115.41 -30.53 0zm-203.32 23.25c9.89,0 18.08,4.67 24.63,13.95 6.55,9.31 9.81,20.88 9.81,34.73l0 31.81c0,14.16 -3.26,25.86 -9.81,35.11 -6.55,9.24 -14.74,13.85 -24.63,13.85l-25.37 0 0 -129.46c0,0 25.37,0 25.37,0zm0 152.74c18.55,0 33.99,-6.72 46.39,-20.16 12.37,-13.46 18.59,-30.74 18.59,-51.89l0 -31.74c0,-21.15 -6.21,-38.45 -18.59,-51.97 -12.4,-13.48 -27.84,-20.23 -46.39,-20.23l-55.88 0 0 175.99 55.88 0zm-101.51 -175.99l-30.49 0 0 175.99 30.49 0 0 -175.99zm-160.56 23.25l28.26 0c8.84,0 15.49,2.69 19.94,8.03 4.42,5.32 6.65,12.52 6.65,21.58 0,9.16 -2.2,16.22 -6.57,21.15 -4.38,4.93 -11.05,7.4 -20.01,7.4l-28.26 0 0 -58.15zm30.82 81.43c8.05,0 14.26,2.57 18.59,7.71 4.32,5.13 6.47,12.33 6.47,21.61l0 15.85c0,5.22 0.15,10.36 0.39,15.39 0.23,5.05 0.89,8.61 1.88,10.73l31.57 0.01 0 -2.57c-1.31,-2.13 -2.18,-5.44 -2.63,-9.98 -0.46,-4.52 -0.68,-9.01 -0.68,-13.43l0 -16.18c0,-10.56 -2.13,-19.45 -6.36,-26.66 -4.23,-7.2 -11.07,-12.26 -20.54,-15.18 8.46,-3.92 14.91,-9.31 19.34,-16.17 4.44,-6.85 6.65,-14.94 6.65,-24.32 0,-16.22 -5.05,-28.86 -15.18,-37.92 -10.11,-9.06 -24.15,-13.58 -42.06,-13.58l-58.78 0 0 175.99 30.52 0 0 -71.3c0,-0.01 30.82,-0.01 30.82,-0.01zm-164.65 -61.77l0.89 0 22.21 70.09 -45.17 0 22.06 -70.09zm43.04 133.08l32.03 0 -58.61 -175.99 -31.57 0 -58.92 175.99 32.17 0 12.54 -39.74 59.68 0 12.68 39.74zm-149.39 -219.95l-30.52 0 0 99.55 -84.29 0 0 -99.55 -30.67 0 0 219.95 30.67 0 0 -97.14 84.29 0 0 97.14 30.52 0 0 -219.95z"/>
     </g>
    </g>
   </g>
   <g id="_2091062665344">
    <g>
     <g>
      <g>
       <path class="fil1" d="M548.03 36.96c-14.33,-11.24 -23.66,-16.49 -40.7,-22.91 -19.17,-7.25 -32.65,-9.91 -51.55,-9.91 -22.91,0 -41.96,2.58 -68.23,7.81 -35.96,7.15 -54.68,19.29 -89.57,28.64 -35.07,9.45 -55.89,15.53 -92.16,13.53 -19.12,-1.04 -29.97,-2.8 -48.41,-7.8 -8.31,17.54 -14.02,27.09 -25.52,42.7 -13.94,18.9 -24.27,27.65 -41.13,44.02 -16.79,16.27 -29.22,22.33 -45.05,39.57 -14.53,15.8 -24.58,24.29 -33.06,44.01 -4.76,11.05 -8.63,17.64 -8.34,29.68 0.22,8.66 0.94,14.05 5.19,21.61 5.24,9.28 10.68,14.07 20.6,17.95 8.53,3.34 14.83,5 23.41,1.84 9.57,-3.58 14.77,-9.67 17.45,-19.55 1.58,-5.78 2.25,-9.79 0,-15.35 -1.52,-3.77 -3.07,-5.8 -6.26,-8.34 8.34,2.18 12.96,4.14 20.3,8.58 9.36,5.68 13.53,10.64 20.84,18.79 10.1,11.22 14.02,19.09 21.36,32.26 19.53,35 26.08,58.15 31.25,97.89 3.24,25.09 2.05,39.57 1.03,64.85 -1.73,42.49 -5.04,66.67 -14.83,108.04 -6.36,26.85 -9.67,42.34 -20.6,67.7 -22.81,53.05 -44.18,81.72 -88.51,118.74l-11.99 47.37c8.67,38.84 15.9,60.57 32.29,96.85 14.6,32.34 23.23,51 44.79,79.16 21.4,27.96 35.56,42.97 64.12,63.54 38.22,27.51 65.28,35.58 110.58,48.41 36.71,10.41 59.65,11.72 97.11,21.87 28.72,7.78 45.59,11.19 72.92,22.41 26.25,10.73 40.37,19.02 63.52,35.41 16.17,11.41 24.87,18.59 39.15,32.3 14.29,-13.71 22.96,-20.88 39.13,-32.3 23.18,-16.39 37.3,-24.67 63.52,-35.41 27.36,-11.22 44.2,-14.63 72.91,-22.41 37.47,-10.15 60.4,-11.46 97.12,-21.87 45.3,-12.83 72.36,-20.9 110.58,-48.41 28.58,-20.57 42.73,-35.58 64.12,-63.54 21.56,-28.16 30.21,-46.82 44.79,-79.16 16.39,-36.28 23.61,-58.01 32.29,-96.85l-11.97 -47.37c-44.35,-37.02 -65.69,-65.67 -88.56,-118.74 -10.88,-25.33 -0.24,-2.08 -20.55,-67.7 -7.64,-24.61 -13.12,-65.55 -14.83,-108.04 -1.04,-25.28 -2.23,-39.76 1.03,-64.85 5.15,-39.73 11.7,-62.89 31.23,-97.89 7.37,-13.17 11.29,-21.05 21.37,-32.26 7.3,-8.15 11.48,-13.11 20.8,-18.79 7.37,-4.44 11.99,-6.4 20.3,-8.58 -3.17,2.54 -4.69,4.57 -6.24,8.34 -2.25,5.56 -1.55,9.57 0,15.35 2.71,9.88 7.88,15.98 17.45,19.55 8.61,3.16 14.89,1.49 23.45,-1.84 9.91,-3.89 15.34,-8.67 20.56,-17.95 4.23,-7.56 5,-12.96 5.19,-21.61 0.29,-12.03 -3.58,-18.63 -8.31,-29.68 -8.48,-19.72 -18.56,-28.21 -33.09,-44.01 -15.81,-17.24 -28.23,-23.3 -45.03,-39.57 -16.87,-16.36 -27.22,-25.12 -41.13,-44.02 -11.51,-15.61 -17.24,-25.16 -25.52,-42.7 -18.47,4.99 -29.32,6.76 -48.44,7.8 -36.28,2.01 -57.07,-4.09 -92.18,-13.53 -34.88,-9.36 -53.58,-21.49 -89.56,-28.64 -26.24,-5.23 -45.3,-7.81 -68.2,-7.81 -18.9,0 -32.41,2.66 -51.56,9.91 -17.06,6.43 -26.37,11.67 -40.7,22.91z"/>
       <path class="fil0" d="M445.55 848.63c0.13,5.95 -0.41,12.04 -1.59,17.89 -4.59,-1.18 -8.99,-1.18 -13.71,-1.18 -4.61,0 -9.18,0.08 -13.7,1.18 -1.38,-6.86 -1.67,-13.56 -1.59,-20.45l6.19 7.37c0.58,-1.25 3.21,-7.88 4.66,-8.21l0.34 -0.15c1.73,0.92 2.19,0.83 4.15,0.83 1.98,0 2.47,0.09 4.33,-0.92 1.62,0.68 2.61,3.96 3.29,5.34 0.53,1.11 1.04,2.29 1.4,3.12l6.24 -7.37c0,0 0,2.56 0,2.56z"/>
       <path class="fil0" d="M651.69 758.03c-10.63,2.03 -16.83,2.53 -27.68,2.53 -18.44,-0.05 -28.23,-8.82 -46.6,-7.71 -10.42,0.68 -16.78,0.58 -26.18,4.98 -10.58,5 -17.62,9.36 -22.42,20.11 -4.4,9.91 -4.69,17.62 -0.88,27.8 3.72,9.78 10.51,15.01 18.3,19.77 11.52,7.1 19.62,6.84 33.13,7.95 19.05,1.45 29.47,-2.53 47.81,-6.7 15.73,-3.54 24.14,-7.37 39.58,-11.84 16.65,-4.85 26.11,-7.49 42.85,-11.97 6.7,-6.52 10.81,-10.01 18.39,-15.51 7.93,-5.68 12.72,-8.61 21.46,-12.98l-0.73 -5.41c-16.39,3.21 -25.55,5.41 -41.67,9.81 -20.04,5.53 -30.79,10.61 -50.73,16.53 -17.74,5.22 -27.6,9.09 -45.8,12.35 -10.27,1.81 -16.07,3.94 -26.52,3.34 -9.06,-0.51 -15.93,0.94 -22.86,-4.98 -3.5,-3 -6.06,-4.98 -6.89,-9.47 -0.58,-3.1 -0.82,-5.37 0.95,-7.9 1.59,-2.32 3.54,-3.41 6.35,-3.5 3.55,-0.08 6.43,1.71 7.61,5.09 0.94,3.07 0.17,5.85 -2.27,7.88 3.82,0.37 6.09,0.34 9.84,-0.29 4.49,-0.73 7.61,-0.46 10.95,-3.5 3.09,-2.74 4.54,-5.36 4.59,-9.5 0.05,-4.84 -2.03,-8.15 -5.97,-10.86 -2.6,-1.78 -4.49,-2.37 -7.64,-2.46 4.59,-1.53 8.03,-1.28 12.35,0.92 2.25,1.18 3.51,2.13 5.08,4.18 2.47,3.21 3.24,6.1 2.69,10.17 8.05,-0.74 12.72,-1.88 20.11,-4.99 7.56,-3.24 11.19,-6.38 17.81,-11.22 6.14,-4.52 9.45,-7.33 14.96,-12.62z"/>
       <path class="fil0" d="M430.37 873.22c-5.42,0 -9.41,0 -13.39,3.65 -1.08,0.92 -1.79,1.52 -2.47,2.78 -1.43,2.63 -1.18,5 0.05,7.73 2.58,5.59 9.57,1.86 15.81,1.86 6.19,0 13.14,3.73 15.78,-1.86 1.21,-2.73 1.43,-5.09 0,-7.73 -0.7,-1.26 -1.38,-1.86 -2.42,-2.78 -4.05,-3.65 -8.02,-3.65 -13.36,-3.65z"/>
       <path class="fil0" d="M719.8 904.18c-3.26,3.41 -6.06,5.08 -7.42,9.57 -0.94,3.04 -0.43,8.15 -0.43,8.15l0.61 6.26c0.27,2.73 0.12,4.34 -0.66,6.95 -0.63,2.37 -0.98,3.82 -2.65,5.61l-11.97 12.71c1.49,-2.63 2.08,-4.33 2.51,-7.3 0.44,-2.95 0.78,-4.84 -0.33,-7.65l-3.94 -10.01c-0.68,-1.62 -0.17,-2.78 0.1,-4.49 0.19,-1.42 0.34,-1.93 0.87,-3.69l-6.7 7.18c-1.64,1.78 -2.53,2.97 -3.31,5.34 -0.79,2.56 -1.13,4.33 -0.29,6.86l4.16 12.31c0.73,2.1 0.33,3.48 -0.19,5.68 -0.78,3.04 -1.93,4.57 -4.09,6.86l-11.94 12.64c1.52,-2.56 2.05,-4.25 2.49,-7.22 0.46,-2.98 0.79,-4.91 -0.37,-7.71l-3.89 -9.41c-0.68,-1.69 -0.14,-2.8 0.1,-4.57 0.22,-1.45 0.34,-1.96 0.9,-3.64l-6.72 6.94c-1.67,1.78 -2.53,3.07 -3.29,5.34 -0.84,2.53 -1.13,4.42 -0.28,6.96l4.15 12.2c0.7,2.13 0.29,3.55 -0.22,5.68 -0.78,3.04 -1.91,4.67 -4.09,6.94l-11.94 12.67c1.12,-2.05 1.58,-3.24 1.96,-5.53 0.46,-2.79 0.46,-4.59 -0.31,-7.28l-2.9 -10.44c-2.39,2.9 -3.92,4.49 -6.75,7.03 -3.74,3.31 -6.06,5 -10.39,7.55 -0.46,3.99 -1.31,6.35 -3.48,9.84 -2.69,4.25 -5.13,6.28 -9.53,8.65 -5.46,2.98 -9.52,3.73 -15.68,3.05 1.6,-2.98 2.03,-5.15 1.74,-8.56 -0.27,-2.97 -0.6,-5.07 -2.63,-7.3 -1.74,-1.93 -3.31,-2.78 -5.95,-3.14 0.53,1.38 0.8,2.13 1.31,3.5 0.63,1.67 0.94,2.69 1.58,4.4 -2.76,4.15 -4.62,6.28 -8.25,9.57 -3.6,3.31 -5.85,4.9 -10.11,7.2 -3.19,-0.07 -5.08,-0.17 -8.29,-0.23 -2.47,-0.18 -3.91,-0.68 -6.35,-0.37 -2.9,0.43 -4.43,1.28 -6.96,2.9 -3.31,2.03 -5.03,3.72 -7.1,7.13 -1.28,-4.15 -1.62,-6.62 -1.45,-10.95 0.33,-7.4 1.52,-12.3 6.35,-17.79 2.88,-3.32 5.08,-4.91 9.16,-6.63 -6.96,0.93 -11.19,3.22 -15.85,8.56 -3.31,3.81 -4.67,6.7 -5.68,11.7 -3.75,1.01 -5.85,1.86 -9.16,3.81 -4.33,2.47 -6.62,4.23 -9.84,7.88 -2.29,-3.99 -2.75,-7.2 -1.59,-11.69 0.75,-3.14 1.72,-5 4.09,-7.28 1.49,-1.45 2.51,-2.05 4.47,-2.9 1.69,-3.72 2.95,-5.77 5.68,-8.82 4.4,-5 7.79,-7.45 13.99,-9.81 -4.49,-0.6 -7.3,-0.17 -11.46,1.53 -4.05,1.76 -6.02,3.64 -8.89,7.03 -2.63,3.14 -3.82,5.27 -5,9.16 -3.92,1.11 -6.11,2.03 -9.57,4.16 -3.48,2.03 -5.34,3.45 -8.22,6.43 -1.71,-2.78 -2.13,-4.81 -1.88,-8.06 0.27,-3.64 1.62,-5.77 3.99,-8.56 2.47,-2.88 4.49,-4.15 8.06,-5.44 0.84,-6.02 2.29,-9.57 6.02,-14.48 3.64,-4.76 6.55,-7.13 12.03,-9.57 4.25,-1.88 6.96,-2.39 11.57,-2.56 6.91,-0.27 10.56,2.47 17.26,4.06 5.95,1.35 9.14,3.72 15.25,3.58 6.74,-0.18 11.02,-1.36 16.49,-5.44 5.09,-3.73 7.54,-7.04 9.66,-12.98 2.58,-0.99 3.99,-1.76 6.19,-3.46 2.54,-1.95 3.84,-3.4 5.68,-6.04 -4.44,2.05 -7.18,2.99 -12.03,3.84 -5.4,0.92 -8.61,0.92 -14.02,0.24 1.16,-1.45 1.81,-2.2 2.89,-3.72 5.78,-8.15 5.18,-14.84 10.46,-23.23 4.54,-7.13 7.14,-11.43 13.68,-16.78 9.47,-7.8 17.29,-8.84 29.15,-12.06 7.65,-2.1 12.44,-1.28 20.01,-3.82 3.91,-1.35 6.91,-1.08 9.79,-4.14 2.03,-2.05 3.11,-3.64 3.5,-6.55 0.29,-2.18 0.13,-3.54 -0.73,-5.49 4.98,-2.9 8.1,-3.99 13.68,-5 6.85,-1.18 11.07,-1.02 17.81,0.68 4.11,1.02 6.68,1.59 10.13,3.99 3.53,2.44 5.6,4.33 7.3,8.2 2.13,4.93 2.13,8.84 0,13.75 -5.15,3.08 -7.88,5.18 -12.04,9.51z"/>
       <g>
        <path class="fil0" d="M885.73 952.16c-0.51,-3.48 -0.92,-5.6 -3.04,-8.31 -2.18,-2.79 -5.18,-3.99 -7.52,-5.08 -2.25,-1.02 -6.86,-1.62 -9.33,-1.62l-2.88 0c-2.66,0 -4.23,0.07 -6.79,-0.68 -2.49,-0.68 -4.14,-1.01 -5.93,-2.8l-8.67 -9.23c1.21,0.58 2.08,0.78 3.46,1.02 1.21,0.17 1.88,0.27 3.07,0.27l12.42 0c2.74,0 4.28,0.33 6.94,0.98 1.96,0.44 3,0.78 4.89,1.55l-6.65 -10.59c-1.58,-2.48 -2.49,-3.99 -4.89,-5.7 -2.42,-1.68 -4.18,-2.53 -7.2,-2.53l-15.51 0c-2.54,0 -4.21,0.17 -6.48,-1.02 -2.18,-1.08 -2.93,-2.46 -4.47,-4.32l-6.77 -8.56c1.52,0.84 2.51,1.11 4.18,1.52 1.43,0.24 2.23,0.43 3.65,0.43l13.61 0c3.31,0 5.22,0.51 8.36,1.43 2.32,0.78 3.63,1.28 5.8,2.47l-12.62 -16.54c-1.33,-1.69 -2.18,-2.63 -4.04,-3.64 -2.13,-1.26 -3.6,-1.69 -6.04,-1.69l-12.02 0c-2.34,0 -3.79,-0.08 -5.92,-1.02 -2.18,-1.02 -3.5,-1.77 -4.66,-3.82l-10.01 -16.78c8.12,-0.09 12.95,-1.01 20.5,-4.15 8.77,-3.65 14.23,-6.43 19.75,-14.14 5.56,-7.8 7.35,-14.02 6.98,-23.59 -0.33,-8.05 -1.95,-12.88 -6.33,-19.65 -4.14,-6.4 -7.83,-9.21 -14.22,-13.32 -6.38,-4.19 -11.02,-4.62 -18.05,-7.62 -8,-3.5 -16.34,-1.38 -20.47,-9.09 -1.91,-3.57 -3.31,-6.35 -2.08,-10.25 1.21,-3.64 3.31,-5.77 6.91,-7.05 -8.56,-3.04 -15.01,-2.88 -23.4,0.78 -5.8,2.56 -9.57,4.59 -12.77,10.11 -3.45,6.02 -4.01,11.09 -1.91,17.69 -8.16,4.15 -12.57,6.95 -19.94,12.4 -10.18,7.54 -15.49,12.52 -23.66,22.18 7.88,-1.93 12.42,-2.78 20.47,-3.79 7.25,-0.94 11.41,-1.21 18.73,-1.28 -0.33,-4.16 0.22,-6.77 2.2,-10.46 3.58,-6.65 9.01,-10.01 16.59,-10.13 -3.31,1.26 -5.08,2.71 -7.15,5.59 -2.74,3.89 -4.59,7.47 -2.76,11.89 1.59,3.79 4.4,6.07 8.56,6.26 2.28,0.17 3.78,-0.27 5.73,-1.55 -0.6,-2.53 -0.55,-4.13 0.08,-6.67 1.74,-6.79 7.59,-10.95 14.58,-10.44 -2.18,1.04 -3.27,1.96 -4.84,3.82 -4.74,5.54 -5.3,12.78 -0.97,18.66 3.63,4.9 8.58,6.84 14.58,5.75 -0.92,-1.58 -1.23,-2.66 -1.28,-4.49 -0.03,-5.35 5.44,-8.56 10.83,-8.56 5.75,0.09 10.58,4.25 10.85,10.01 0.56,11.62 -9.38,10.76 -17.49,11.77 -5.27,0.78 -8.25,-1.08 -13.44,-2.1 -7.56,-1.45 -11.65,-3.07 -19.25,-4.42 -16.63,-3.09 -26.29,-4.66 -43.17,-3.79 -13.22,0.65 -20.54,2.87 -33.55,5.36 -21.02,4.04 -32.34,8.77 -53.32,13.02 -23.4,4.64 -36.69,8.9 -60.52,9.14 -25.52,0.33 -40.32,-1.69 -64.77,-8.8 2.63,4.66 3.65,7.71 4.49,12.95 0.46,2.98 0.41,4.69 0.41,7.64 -2.46,-6.02 -4.3,-9.26 -7.96,-14.57 -4.83,-7.23 -10.17,-9.36 -14.59,-16.85 -1.02,-1.81 -1.93,-2.75 -2.53,-4.76 -0.61,-2.13 -0.78,-3.5 -0.27,-5.68 0.36,-1.71 0.82,-2.73 1.88,-4.15 0,1.59 0.24,2.53 0.92,3.89 0.53,0.93 0.87,1.45 1.62,2.16l15.25 15.23c1.72,-10.51 1.38,-17.07 -1.53,-27.32 -2.19,-7.64 -4.14,-11.84 -8.66,-18.39 2.52,-6.82 3.31,-11.05 3.51,-18.39 0.12,-5.59 -0.2,-8.81 -1.5,-14.24 -3.34,1.98 -5.17,3.22 -8.31,5.51 -2.1,1.59 -3.7,2.13 -5.3,4.23 -1.86,2.42 -2.53,4.25 -2.97,7.3 -0.34,2.8 -0.18,4.49 0.68,7.13 -3.12,-1.86 -4.74,-3.68 -6.36,-6.96 -1.52,-3.14 -2.53,-5.41 -1.59,-8.82 0.73,-2.53 1.83,-3.82 3.82,-5.5 3.12,-2.71 6.19,-1.67 10.08,-2.95 3.64,-1.23 5.68,-2.01 9.23,-3.48 -0.17,-0.73 -0.34,-1.11 -0.6,-1.79 -0.34,-0.58 -0.58,-0.97 -0.99,-1.52 -5.27,-1.35 -8.49,-1.62 -13.97,-1.16 -3,0.27 -4.69,0.55 -7.56,1.33 -3.92,-4.39 -7.09,-6.45 -12.72,-8.21 -3.48,-1.12 -5.6,-1.36 -9.16,-1.28 -4.59,-3.99 -7.83,-5.75 -13.65,-7.37 -5.3,-1.43 -8.56,-0.8 -13.98,-0.8 -5.5,0 -8.75,-0.63 -14.04,0.8 -5.8,1.62 -9.11,3.38 -13.61,7.37 -3.63,-0.08 -5.75,0.17 -9.23,1.28 -5.6,1.76 -8.82,3.81 -12.67,8.21 -2.94,-0.78 -4.64,-1.07 -7.59,-1.33 -5.49,-0.46 -8.71,-0.19 -13.99,1.16 -0.34,0.51 -0.51,0.84 -0.85,1.43 -0.33,0.75 -0.51,1.11 -0.74,1.88 3.54,1.48 5.58,2.25 9.23,3.48 3.89,1.28 6.95,0.24 10.08,2.95 2.05,1.68 3.11,2.97 3.81,5.5 0.94,3.41 -0.09,5.68 -1.62,8.82 -1.62,3.29 -3.17,5.1 -6.35,6.96 0.89,-2.63 1.03,-4.33 0.68,-7.13 -0.41,-3.04 -1.11,-4.89 -2.98,-7.3 -1.59,-2.1 -3.16,-2.63 -5.24,-4.23 -3.14,-2.29 -5,-3.55 -8.31,-5.68 -1.26,5.51 -1.59,8.77 -1.53,14.41 0.18,7.35 1.02,11.57 3.58,18.39 -4.59,6.55 -6.55,10.75 -8.75,18.39 -2.88,10.25 -3.21,16.8 -1.43,27.32l15.18 -15.23c0.75,-0.71 1.09,-1.23 1.59,-2.16 0.68,-1.35 0.95,-2.29 0.95,-3.89 1.08,1.43 1.52,2.44 1.91,4.15 0.46,2.18 0.29,3.55 -0.29,5.68 -0.63,2.01 -1.5,2.95 -2.57,4.76 -4.39,7.5 -9.74,9.62 -14.57,16.85 -3.65,5.31 -5.44,8.63 -7.98,14.57 -0.94,-2.05 -1.23,-3.4 -1.28,-5.68 0,-2.19 0.27,-3.48 1.07,-5.44 -8.1,-4.64 -12.59,-7.61 -20.04,-13.32 -7.1,-5.41 -11.62,-8.16 -17.44,-14.88 -6.96,-7.98 -15.11,-12.69 -13.98,-23.16 0.61,-5.44 3.8,-7.64 5.83,-12.72 2.53,-6.26 5.92,-9.66 5.6,-16.44 -0.31,-7.3 -2.56,-12.01 -7.9,-16.89 0.38,-4.2 -0.18,-6.94 -2.28,-10.76 -2.8,-5.17 -6.28,-7.78 -12.06,-9.16 1.96,3.26 2.51,5.67 2.25,9.5 -0.2,3.38 -0.98,5.44 -2.84,8.24 1.98,2.69 2.63,4.91 2.54,8.27 -0.18,3.91 -1.45,6.55 -4.49,9.18 0.94,-5.35 0.33,-8.9 -2.2,-13.63 -2.63,-4.83 -5.34,-7.4 -10.41,-9.52 -1.53,-6.77 -7.06,-11.17 -14,-11.09 -4.15,0.04 -6.86,1.18 -9.81,4.1 3.69,0.48 6.11,1.96 8.19,5.03 1.18,1.79 1.72,3.04 1.96,5.1 -1.45,0.94 -2.13,1.62 -3.21,2.9 -1.28,1.59 -1.86,2.7 -2.52,4.74 5.39,0.24 8.87,1.93 12.32,6.02 3.68,4.23 4.84,8.15 4.19,13.63 -1.11,-3.24 -2.13,-5.07 -4.42,-7.61 -5.68,-6.19 -12.47,-8.21 -20.65,-6.28 -3.26,-3.48 -6.67,-4.79 -11.41,-4.48 -4.98,0.34 -8.31,2.2 -11.09,6.36 3.21,0.14 5.17,0.75 7.88,2.53 2.13,1.28 3.14,2.32 4.57,4.33 -1.35,1.59 -2.03,2.61 -2.94,4.54 -1.96,4.09 -2.54,6.89 -2.23,11.38 0.33,5 1.21,8.26 4.42,12.04 3.48,4.08 6.77,6.62 12.09,6.35 1.71,-0.09 2.75,-0.41 4.44,-0.94 1.86,-0.58 2.8,-2.01 4.74,-1.81 4.74,0.55 6.38,6.91 0,9.11 -1.69,0.58 -2.7,-0.58 -4.44,-0.94 -2.18,-0.51 -3.26,-1.52 -5.46,-1.25 -2.9,0.24 -4.59,1.57 -6.43,3.79 -1.96,2.32 -2.63,4.25 -2.69,7.3 -2.15,0.65 -3.6,0.65 -5.73,0 -1.59,-0.5 -2.53,-1.06 -3.82,-2.22 -1.08,4.08 -0.48,7.32 1.96,10.81 2.46,3.45 5.27,5.02 9.47,5.31 2.74,5.68 5.78,8.68 11.46,11.37 2.75,1.35 4.49,2.29 7.54,2.22 3.82,-0.09 5.51,-2.22 8.92,-3.82 2.27,-1.01 3.22,-2.53 5.73,-2.8 2.66,-0.33 4.42,0.1 6.62,1.53 3.14,2.13 4.54,4.83 4.43,8.56 -0.1,4.86 -3.65,7.4 -8.06,9.52 -3.31,1.5 -5.75,1.83 -9.33,1.09l7.88 7.37c2.74,2.46 4.4,3.79 7.71,5.34 3.48,1.59 5.78,2.37 9.57,2.37l1.5 -0.01c3.77,0 5.92,0 9.52,0.94 3.92,0.92 6.55,1.28 9.33,4.05l8.17 7.98c-2.06,-0.78 -3.34,-1.04 -5.54,-1.35 -1.79,-0.37 -2.8,-0.53 -4.59,-0.53l-1.93 0c-4.15,0 -6.53,-0.41 -10.61,-1.33 -3.12,-0.7 -4.81,-1.21 -7.79,-2.23l12.88 12.21c2.63,2.53 4.33,3.82 7.64,5.36 3.55,1.58 5.75,2.35 9.57,2.35l1.53 -0.01c3.72,0 5.92,0 9.59,0.94 3.8,0.92 6.43,1.35 9.31,4.06l8.32 7.98c-2.03,-0.78 -3.31,-1.04 -5.51,-1.36 -1.79,-0.33 -2.8,-0.43 -4.57,-0.43l-2.57 0c-4.14,0 -6.53,-0.51 -10.58,-1.33 -3.14,-0.78 -4.84,-1.21 -7.81,-2.32l14.92 13.32c1.88,1.72 2.97,2.7 5.26,3.74 2.47,1.08 3.99,1.69 6.62,1.69l17.73 0c-15.01,8.29 -19,12.62 -32.15,19.34 -14.36,7.35 -21.95,17.21 -38.07,16.17 -6.21,-0.41 -9.41,-2.53 -15.5,-3.82 -3.99,-0.84 -6.19,-1.86 -10.17,-1.93 -5.34,0 -8.77,0.42 -13.29,3.22 -3.48,2.13 -5.22,3.82 -7.3,7.3 4.06,-1.45 6.77,-1.72 11.1,-0.94 4.74,0.78 7.49,2.13 11.12,5.35 -3.58,-0.78 -5.6,-1.04 -9.26,-0.94 -7.15,0.17 -11.82,0.77 -17.72,4.76 -5.75,3.99 -9.23,7.44 -10.82,14.3 -0.88,3.82 -0.88,6.29 0,10.11 -1.79,1.33 -2.71,2.29 -4.09,4.06 -2.29,2.9 -4.06,4.66 -4.16,8.31 -0.07,3.72 1.02,6.26 3.82,8.66 1.36,-3.99 3.31,-6.29 6.96,-8.31 2.47,-1.36 4.14,-1.87 7.04,-1.96 1.01,0.84 1.59,1.28 2.8,1.96 1.52,0.84 2.43,1.18 4.14,1.59l3.5 -4.14c-0.61,-6.72 0.78,-11.29 5.08,-16.55 5.08,-6.1 10.76,-8.63 18.73,-8.2 -7.4,2.03 -11.79,5.92 -14.6,12.95 -1.76,4.33 -2.03,7.2 -1.25,11.8 -3.31,1.69 -5,3.46 -6.62,6.77 -2.47,5.26 -2.13,10.01 1.21,14.74 2.1,-3.7 3.87,-5.59 7.27,-8.22 3.89,-2.88 6.6,-4.15 11.37,-5.08 2.46,0.75 3.89,1.02 6.45,1.28 3.8,0.41 6.02,0.31 9.77,-0.37 -1.55,-2.78 -2.06,-4.64 -2.25,-7.88 -0.34,-7.8 2.99,-14.31 10.17,-17.14 3.07,-1.16 5.05,-1.43 8.25,-0.92 -3.31,0.88 -5.17,1.96 -7.55,4.43 -3.74,3.72 -6.04,7.2 -5.09,12.37 0.68,3.96 2.29,6.43 5.68,8.56 2.2,1.35 3.74,1.86 6.35,1.96 -0.03,2.03 -0.17,3.11 -0.68,5.07 -0.51,2.37 -1.01,3.63 -2.19,5.85 5.07,-0.58 8.14,-1.86 12.03,-5.09 2.78,-2.3 4.11,-3.97 5.75,-7.11 2.63,-0.68 4.15,-1.45 6.33,-3.24 4.49,-3.63 7.11,-7.71 6.21,-13.46 -0.51,-3.55 -1.67,-5.68 -4.3,-8.06 -0.53,-5 3.55,-9.5 8.56,-9.57 5.3,0 9.33,5.35 8.56,10.59 -0.27,1.78 -0.68,2.78 -1.77,4.25l15.42 -0.19c2.37,-0.08 3.79,-0.42 5.92,-1.53 2.47,-1.18 3.82,-2.2 5.18,-4.49l6.19 -10.25c1.11,-1.88 1.95,-2.88 3.82,-4.15 1.68,-1.28 2.78,-2.2 4.9,-2.13l11.12 0.09c-1.28,0.75 -1.96,1.26 -3.03,2.37 -0.87,0.94 -1.43,1.43 -2.08,2.63l-5 8.39c-1.55,2.63 -2.88,3.82 -5.08,5.85 -1.58,1.52 -2.56,2.27 -4.33,3.55l18.39 -0.34c2.47,0 3.89,-0.33 6.02,-1.43 2.37,-1.18 3.74,-2.29 5.17,-4.59l13.05 -20.35c-2.83,-2.47 -12.03,-6.94 -14.74,-14.58 -1.21,-3.21 -1.62,-5.27 -1.44,-8.72 0.09,-2.88 0.6,-4.49 1.62,-7.3 0.92,-2.7 2.29,-3.79 3.14,-6.5 0.68,-2.13 1.02,-3.31 1.09,-5.53 0,-1.67 -0.08,-2.71 -0.51,-4.4l6.75 3.73c1.57,0.87 2.42,1.62 3.36,3.21 0.92,1.72 1.13,2.9 1.01,4.76 -0.09,1.96 -0.94,2.88 -1.52,4.74 -1.07,3.04 -2.39,4.49 -2.74,7.71 -0.31,3.14 -0.24,5.27 1.12,8.22 1.62,3.74 4.23,4.85 7.44,7.49 4.09,3.29 6.8,4.81 11.63,6.84l0 -29.12 10.74 0 0 26.93c0,2.46 0.27,3.99 1.55,6.04 1.02,1.83 1.93,2.85 3.79,3.79l8.58 4.16c3.04,1.43 5.22,1.43 8.56,1.25 2.7,-0.14 4.23,-0.58 6.7,-1.59l15.44 -6.7c-1.96,0.24 -3.14,0.17 -5.1,-0.33 -2.13,-0.51 -3.07,-1.55 -5.03,-2.63l-19.99 -10.66c2.39,-1.96 3.49,-4.09 4.4,-7.23 0.87,-2.63 0.87,-4.33 0.7,-7.1 -0.27,-2.74 -1.04,-4.09 -1.62,-6.7 -0.39,-1.62 -0.93,-2.47 -0.93,-4.09 -0.09,-1.69 0,-2.63 0.58,-4.15 0.55,-1.26 0.84,-2.13 2.03,-2.88l8.56 -5.68c-0.23,1.45 -0.33,2.27 -0.33,3.82 0,1.86 0.27,2.87 0.63,4.74 0.48,2.29 1.33,3.39 1.92,5.68 0.6,2.46 0.94,3.91 0.94,6.38 0.09,4.81 -0.73,7.71 -2.86,12.01l20.65 11.46c2.05,1.09 3.34,1.79 5.7,1.96 2.27,0.24 3.63,0.17 5.75,-0.68l19 -7.47c-2.01,0.34 -3.24,0.24 -5.09,-0.27 -2.2,-0.58 -3.14,-1.52 -5.08,-2.63l-19.65 -10.75c-1.21,-0.68 -1.96,-0.85 -3.17,-1.26 -1.35,-0.51 -2.1,-0.87 -3.55,-1.28 0.95,-1.45 1.12,-2.29 1.63,-3.82 0.74,-2.19 1.18,-3.48 1.59,-5.75 0.94,-5.19 0.33,-8.41 -0.68,-13.58 -0.92,-5.41 -3.46,-7.88 -4.33,-13.29 -0.51,-1.52 -0.68,-2.46 -0.58,-4.05 0.03,-1.63 -0.27,-2.9 0.92,-3.89l10.36 -8.67c-0.27,1.54 -0.36,2.46 -0.27,4.08 0,1.26 0.03,1.96 0.27,3.22 0.51,2.43 1.59,3.64 2.53,6.02 1.02,2.46 1.6,3.89 2.54,6.43 1.69,-1.59 2.61,-2.61 4.1,-4.57 2.59,-3.22 4.11,-5.17 5.37,-9.14 1.11,-3.24 1.45,-5.27 1.31,-8.67 -0.27,-3.54 -0.53,-5.75 -2.47,-8.71l-5.13 -7.56c-1.23,-1.86 -1.66,-3.29 -1.83,-5.49 -0.27,-2.99 0.61,-4.66 1.83,-7.47l5.13 -11.79c-0.68,2.13 -0.87,3.55 -0.61,5.77 0.22,1.6 0.44,2.63 1.18,4.06l4.09 7.71 5.24 6.86 5.17 11.97c0.75,4.3 0.75,6.94 0,11.27 -1.03,5.34 -2.8,8.05 -5.6,12.81 -4.57,7.71 -12.78,14.17 -15.58,16.94 0,0 0.29,2.23 0.27,3.65 -0.1,3.55 -0.78,5.58 -2.2,8.91l26.59 14.22c2.13,1.13 3.4,1.78 5.73,2.05 2.24,0.18 3.79,0.34 5.82,-0.77l12.98 -6.94c-1.88,0.65 -3.34,0.58 -5.1,-0.34 -2.01,-0.94 -2.7,-2.39 -3.48,-4.42 -1.86,-5 1.93,-9.91 6.3,-12.04 17.77,-8.56 36.33,-15.01 59,-25.59 25.47,-11.97 38.18,-22.29 64.38,-32.63 14.14,-5.51 21.73,-12.31 36.96,-12.31 9.45,0 15.76,-0.17 23.78,4.91 3.89,2.48 6.15,4.09 8.68,7.9 2.27,3.39 2.93,5.68 3.82,9.57 2.19,9.41 -4.19,14.92 -3.19,24.42 1.18,10.76 3.24,17.47 10.17,25.69 5.78,6.86 11.07,8.72 18.95,13.05 5.3,2.8 9.84,2.03 14.04,6.36 1.98,1.95 3.34,3.21 4.11,6.01 0.63,2.2 0.63,3.75 0,6.02 4.39,0.08 6.98,-0.33 11.09,-1.95 6.19,-2.37 9.6,-4.99 13.32,-10.42l17.1 -0.01c1.67,2.88 2.18,4.83 2.25,8.15 0.04,3.72 0,6.53 -2.53,9.31 -2.63,2.8 -5.51,2.53 -9.28,3.14 -5.27,0.85 -8.32,-1.42 -13.66,-1.28 -5.97,0.27 -9.86,-0.08 -15.13,2.9 -5.9,3.31 -8.8,6.94 -11.12,13.32 -1.45,4.2 -1.76,6.94 -1.26,11.33 -2.42,1.62 -3.64,2.9 -5.07,5.44 -2.76,5 -2.76,9.57 0,14.58 2.7,-3.12 4.49,-4.76 7.95,-6.94 2.78,-1.86 4.49,-2.74 7.59,-3.82 0.38,-9.16 4.93,-15.68 13.32,-19.34 4.91,-2.13 8.44,-2.47 13.66,-1.26 -6.11,1.26 -9.71,3.29 -13.95,7.88 -5.44,5.93 -7.44,11.37 -6.98,19.39 -1.74,2.37 -2.29,4.33 -2.13,7.23 0.22,3.21 1.13,5.17 3.38,7.37 4.33,-7.14 9.06,-10.68 17.14,-12.72 4.09,-1.02 6.6,-1.18 10.81,-0.68 -1.83,-6.79 -0.68,-12.21 3.77,-17.72 4.69,-5.77 10.18,-8.05 17.53,-7.3 -4.35,1.25 -6.89,2.97 -9.62,6.62 -2.48,3.48 -3.84,6.19 -3.45,10.51 0.41,4.74 2.32,7.88 6.35,10.41 -0.17,2.37 0.05,3.89 0.92,6.02 0.99,2.37 1.96,3.64 3.92,5.17 0.68,-3.31 1.69,-5.27 4.06,-7.71 1.66,-1.72 2.87,-2.46 5.03,-3.48 3.57,-1.53 6.06,-0.51 9.88,-1.28 6.35,-1.16 11.02,-0.41 15.83,-4.74 3.55,-3.14 5.41,-5.85 6.09,-10.62 0.9,-6.09 -0.87,-10.66 -5.46,-14.74 0.97,-6.25 1.18,-9.81 0.97,-16.19 -0.24,-6.6 -0.78,-10.32 -2.34,-16.78l2.01 0.01c2,0 2.46,0.26 5.12,0.94 1.93,0.41 4.21,2.53 5.56,5.17 0.97,-3.58 1.08,-5.85 0.51,-9.5l0 0zm-409.92 -170.13c-0.19,2.8 -1.11,5 -3.24,7.37 -2.28,2.53 -4.16,3.99 -7.2,3.99l-7.54 0c1.95,1.93 3.54,3.44 3.54,6.53 0,3.99 -3.21,7.2 -7.2,7.2 -3.99,0 -7.2,-3.21 -7.2,-7.2 0,-2.05 0.84,-3.87 2.19,-5.17l1.36 -1.35 -8.21 -0.01c-1.86,0 -2.98,1.02 -4.4,2.47l0 -2.03c0,-1.28 -0.09,-2.34 0,-3.36 0.18,-2.13 2.13,-4.54 4.4,-4.54l24.07 0c3.31,0 7.03,-1.52 9.42,-3.89l0 0zm-26.01 -29.15c1.31,0 2.08,0.34 3.19,0.97 1.13,0.63 1.69,1.14 2.53,2.25l7.81 10.08c0.58,0.74 0.68,1.35 1.25,1.95 0.88,0.75 1.5,1.04 2.56,1.26l-6.33 0c-1.91,0 -3.07,-0.34 -4.79,-1.26 -1.59,-0.97 -2.29,-1.95 -3.46,-3.48l-6.3 -8.31c-0.53,-0.75 -0.82,-1.18 -1.5,-1.86 -0.84,-0.78 -1.38,-1.09 -2.32,-1.6 0,0 7.35,0 7.35,0zm-25.45 -3.84c1.83,0 2.98,0.61 4.57,1.64 1.35,0.83 2.1,1.5 3.04,2.88l9.23 13.29c0.61,0.78 0.95,1.18 1.63,1.86 1.11,1.09 1.86,1.63 3.21,2.28l-8.46 0c-1.96,0 -3.27,-0.41 -4.84,-1.59 -1.23,-0.92 -1.58,-1.86 -2.37,-3.21l-7.64 -11.7c-0.75,-1.18 -1.18,-1.86 -2.23,-2.88 -1.43,-1.28 -2.43,-1.91 -4.25,-2.56l8.1 -0.01zm-21.03 3.84c1.28,0 2.03,0.34 3.12,0.97 1.18,0.63 1.78,1.14 2.56,2.25l7.88 10.08c0.51,0.74 0.61,1.35 1.26,1.95 0.78,0.75 1.45,1.04 2.51,1.26l-6.3 0c-1.96,0 -3.14,-0.34 -4.74,-1.26 -1.72,-0.97 -2.39,-1.95 -3.54,-3.48l-6.23 -8.31c-0.58,-0.75 -0.94,-1.18 -1.63,-1.86 -0.79,-0.78 -1.35,-1.09 -2.29,-1.6 0,0 7.4,0 7.4,0zm-9.01 33.04l24.01 0c1.44,0 2.29,0.68 3.4,2.01 1.48,1.72 1.02,3.82 1.02,5.9l-0.22 1.82c-1.23,-1.23 -2.25,-2.25 -4.2,-2.25l-8.22 0c2.05,1.93 3.58,3.44 3.58,6.53 0,3.99 -3.24,7.2 -7.18,7.2 -3.94,0 -7.15,-3.21 -7.15,-7.2 0,-2.05 0.75,-3.87 2.13,-5.17l1.43 -1.35 -7.54 -0.01c-3.14,0 -4.91,-1.45 -7.2,-3.99 -2.13,-2.37 -3.14,-4.57 -3.24,-7.37 2.3,2.37 6.05,3.89 9.41,3.89l0 0zm-9.98 131.32l-2.88 8.32c-0.84,2.34 -0.94,3.89 -1.38,6.33 -0.78,5.27 -0.92,8.22 -0.53,13.49 -1.58,-1.26 -2.42,-2.13 -3.77,-3.65 -1.45,-1.62 -2.03,-2.61 -3.22,-4.3 -2.63,-4.09 -3.74,-6.62 -5.34,-11.02l-0.34 -1.45c-4.69,-1.45 -11.96,-1.96 -15.93,-6.94 -3.68,-4.59 -4.01,-8.41 -4.84,-14.18 -0.77,-4.81 -0.77,-7.71 0,-12.55l4.49 -13.19 4.54 -7.73 3.58 -8.46c0.68,-1.69 0.85,-2.8 1.02,-4.59 0.24,-2.43 0.13,-3.99 -0.51,-6.35l6.29 9.57c1.52,2.39 1.59,4.25 1.59,6.95 0.05,2.98 -0.17,4.86 -1.59,7.47l-6.29 11.87c-1.78,3.39 -1.96,5.78 -2.13,9.67 -0.17,3.72 -0.58,6.19 1.07,9.57 2.52,5.24 6.48,7.88 12.26,8.31 0.07,-2.47 0.17,-3.89 0.63,-6.28 0.48,-2.71 1.4,-4.09 1.83,-6.8 0.18,-1.18 0.24,-1.86 0.34,-3.11 0,-1.63 -0.1,-2.54 -0.34,-4.16l10.42 14.91c1.11,1.55 1.18,2.71 1.28,4.49 0.17,1.52 0.17,2.46 -0.27,3.81l0 0zm103.37 -103.76c-1.98,3.55 -3.69,5.41 -6.99,7.9 -3.48,2.66 -6.11,3.04 -10.12,4.76 -0.89,0.41 -1.49,0.31 -2.25,0.98 -0.84,0.75 -0.84,1.69 -1.28,2.78 -0.61,1.89 -0.34,2.98 -0.94,4.84 -0.75,2.29 -1.26,3.74 -2.83,5.68 -2.18,2.56 -4.04,3.74 -7.33,4.49 -0.04,4.66 -0.26,7.4 -0.84,12.06 -0.68,5.59 -1.38,8.71 -2.85,14.22 0.89,1.72 1.3,2.8 1.91,4.66 0.94,3.04 1.23,4.84 1.11,8.06 -0.17,4.42 -0.43,7.37 -3.14,10.85 -5.25,6.79 -13.28,2.29 -21.78,2.29 -8.58,0 -16.63,4.49 -21.87,-2.29 -2.71,-3.48 -2.98,-6.43 -3.14,-10.85 -0.1,-3.22 0.19,-5 1.08,-8.06 0.61,-1.86 1.04,-2.94 1.96,-4.66 -1.52,-5.51 -2.1,-8.63 -2.88,-14.22 -0.6,-4.66 -0.77,-7.39 -0.84,-12.06 -3.31,-0.75 -5.17,-1.93 -7.3,-4.49 -1.59,-1.93 -2.13,-3.39 -2.87,-5.68 -0.58,-1.86 -0.34,-2.94 -0.92,-4.84 -0.44,-1.08 -0.37,-2.03 -1.28,-2.78 -0.68,-0.68 -1.35,-0.58 -2.23,-0.98 -4.06,-1.72 -6.67,-2.1 -10.15,-4.76 -3.31,-2.49 -5,-4.35 -6.96,-7.9 -2.27,-4.06 -3.55,-6.81 -3.21,-11.43 0.24,-2.63 0.33,-3.21 1.02,-5.78 0.38,-1.35 1.18,-2.85 1.78,-4.08 0.73,-1.36 1.43,-2.01 2.53,-3.12 1.18,-1.18 2.03,-1.79 3.49,-2.53l0 13.12c0,4.89 0.92,7.98 3.79,11.9 2.63,3.63 5.12,5.07 9.26,7.03 3.97,1.83 6.6,2.44 11.1,2.53 -0.34,3.05 -0.18,4.91 0.6,7.88 0.84,3.05 1.11,5.25 3.48,7.28 2.37,2.05 4.52,2.13 7.61,2.23 2.98,0.17 4.76,-0.18 7.47,-1.45 2.1,-1.02 4.49,-1.28 4.93,-3.55 0.15,-1.02 0,-1.62 -0.36,-2.53 -0.61,-2.03 -2.27,-2.49 -3.39,-4.25 -0.92,-1.53 -1.52,-2.44 -2.03,-4.16 -0.53,-1.62 -0.94,-2.63 -0.68,-4.23 0.14,-1.28 -0.1,-3.02 1.18,-3.02l17.54 -0.02c1.26,0 1.02,1.74 1.23,3.03 0.29,1.59 -0.22,2.6 -0.73,4.23 -0.51,1.71 -1.07,2.63 -2.03,4.15 -1.12,1.77 -2.81,2.23 -3.41,4.25 -0.29,0.92 -0.51,1.53 -0.34,2.53 0.43,2.28 2.8,2.54 4.93,3.55 2.71,1.28 4.48,1.62 7.45,1.45 3.14,-0.09 5.27,-0.17 7.64,-2.22 2.37,-2.03 2.66,-4.24 3.49,-7.28 0.84,-2.97 0.92,-4.84 0.68,-7.88 4.39,-0.1 7.03,-0.7 11.05,-2.53 4.13,-1.96 6.57,-3.41 9.21,-7.04 2.88,-3.91 3.82,-7 3.82,-11.89l0 -13.12c1.45,0.75 2.27,1.35 3.48,2.53 1.13,1.12 1.86,1.77 2.53,3.12 0.61,1.23 1.43,2.74 1.79,4.09 0.75,2.56 0.8,3.14 1.01,5.78 0.34,4.62 -0.93,7.38 -3.19,11.44z"/>
       </g>
       <path class="fil0" d="M445.55 529.4c0.13,6.02 -0.41,12.11 -1.59,17.98 -4.59,-1.25 -8.99,-1.21 -13.71,-1.25 -4.61,-0.03 -9.18,0.14 -13.7,1.16 -1.38,-6.77 -1.67,-13.49 -1.59,-20.43l6.19 7.37c0.58,-1.18 3.21,-7.8 4.66,-8.24l0.34 -0.08c1.73,0.94 2.19,0.85 4.15,0.85 1.98,0 2.47,0 4.33,-0.93 1.62,0.68 2.61,3.89 3.29,5.3 0.53,1.14 1.04,2.28 1.4,3.14l6.24 -7.42c0,0.01 0,2.54 0,2.54z"/>
       <path class="fil0" d="M651.69 438.86c-10.63,2.01 -16.83,2.58 -27.68,2.56 -18.44,-0.04 -28.23,-8.84 -46.6,-7.68 -10.42,0.63 -16.78,0.55 -26.18,4.98 -10.58,5 -17.62,9.33 -22.42,20.06 -4.4,9.91 -4.69,17.66 -0.88,27.84 3.72,9.74 10.51,14.98 18.3,19.75 11.52,7.1 19.62,6.84 33.13,7.88 19.05,1.5 29.47,-2.52 47.81,-6.62 15.73,-3.55 24.14,-7.37 39.58,-11.87 16.65,-4.84 26.11,-7.47 42.85,-11.94 6.7,-6.57 10.81,-10.03 18.39,-15.52 7.93,-5.73 12.72,-8.63 21.46,-13l-0.73 -5.4c-16.39,3.24 -25.55,5.4 -41.67,9.81 -20.04,5.56 -30.79,10.59 -50.73,16.51 -17.74,5.22 -27.6,9.11 -45.8,12.32 -10.27,1.86 -16.07,3.99 -26.52,3.41 -9.06,-0.51 -15.93,0.92 -22.86,-5 -3.5,-2.97 -6.06,-5 -6.89,-9.47 -0.58,-3.07 -0.82,-5.4 0.95,-7.96 1.59,-2.27 3.54,-3.38 6.35,-3.48 3.55,-0.08 6.43,1.72 7.61,5.09 0.94,3.04 0.17,5.83 -2.27,7.93 3.82,0.37 6.09,0.29 9.84,-0.34 4.49,-0.7 7.61,-0.46 10.95,-3.48 3.09,-2.73 4.54,-5.36 4.59,-9.5 0.05,-4.86 -2.03,-8.12 -5.97,-10.88 -2.6,-1.76 -4.49,-2.36 -7.64,-2.46 4.59,-1.53 8.03,-1.23 12.35,0.97 2.25,1.16 3.51,2.08 5.08,4.14 2.47,3.24 3.24,6.09 2.69,10.12 8.05,-0.68 12.72,-1.83 20.11,-4.95 7.56,-3.24 11.19,-6.38 17.81,-11.22 6.14,-4.53 9.45,-7.33 14.96,-12.62z"/>
       <path class="fil0" d="M430.37 554.08c-5.42,0 -9.41,0 -13.39,3.64 -1.08,0.92 -1.79,1.53 -2.47,2.78 -1.43,2.63 -1.18,4.99 0.05,7.74 2.58,5.58 9.57,1.86 15.81,1.86 6.19,0 13.14,3.72 15.78,-1.86 1.21,-2.76 1.43,-5.1 0,-7.74 -0.7,-1.25 -1.38,-1.86 -2.42,-2.78 -4.05,-3.64 -8.02,-3.64 -13.36,-3.64z"/>
       <path class="fil0" d="M719.8 585.01c-3.26,3.41 -6.06,5.05 -7.42,9.57 -0.94,3.04 -0.43,8.15 -0.43,8.15l0.61 6.24c0.27,2.74 0.12,4.33 -0.66,6.96 -0.63,2.29 -0.98,3.82 -2.65,5.6l-11.97 12.64c1.49,-2.58 2.08,-4.25 2.51,-7.25 0.44,-2.94 0.78,-4.88 -0.33,-7.68l-3.94 -9.91c-0.68,-1.62 -0.17,-2.8 0.1,-4.57 0.19,-1.43 0.34,-1.93 0.87,-3.63l-6.7 7.15c-1.64,1.82 -2.53,2.98 -3.31,5.32 -0.79,2.58 -1.13,4.35 -0.29,6.91l4.16 12.21c0.73,2.08 0.33,3.53 -0.19,5.73 -0.78,2.99 -1.93,4.57 -4.09,6.84l-11.94 12.62c1.52,-2.53 2.05,-4.23 2.49,-7.18 0.46,-2.97 0.79,-4.91 -0.37,-7.71l-3.89 -9.47c-0.68,-1.62 -0.14,-2.75 0.1,-4.49 0.22,-1.45 0.34,-1.96 0.9,-3.63l-6.72 6.94c-1.67,1.79 -2.53,2.95 -3.29,5.32 -0.84,2.53 -1.13,4.33 -0.28,6.91l4.15 12.23c0.7,2.1 0.29,3.55 -0.22,5.68 -0.78,3.04 -1.91,4.66 -4.09,6.86l-11.94 12.72c1.12,-2.03 1.58,-3.31 1.96,-5.51 0.46,-2.8 0.46,-4.57 -0.31,-7.37l-2.9 -10.45c-2.39,2.98 -3.92,4.57 -6.75,7.14 -3.74,3.31 -6.06,4.98 -10.39,7.49 -0.46,4.04 -1.31,6.4 -3.48,9.79 -2.69,4.3 -5.13,6.28 -9.53,8.66 -5.46,3.02 -9.52,3.82 -15.68,3.14 1.6,-3.07 2.03,-5.17 1.74,-8.56 -0.27,-3.07 -0.6,-5.09 -2.63,-7.3 -1.74,-1.96 -3.31,-2.8 -5.95,-3.24 0.53,1.38 0.8,2.18 1.31,3.55 0.63,1.72 0.94,2.71 1.58,4.43 -2.76,4.08 -4.62,6.28 -8.25,9.59 -3.6,3.31 -5.85,4.91 -10.11,7.2 -3.19,-0.09 -5.08,-0.17 -8.29,-0.29 -2.47,-0.14 -3.91,-0.73 -6.35,-0.28 -2.9,0.41 -4.43,1.25 -6.96,2.78 -3.31,2.13 -5.03,3.82 -7.1,7.22 -1.28,-4.18 -1.62,-6.71 -1.45,-11 0.33,-7.32 1.52,-12.25 6.35,-17.76 2.88,-3.31 5.08,-4.91 9.16,-6.7 -6.96,0.92 -11.19,3.31 -15.85,8.56 -3.31,3.92 -4.67,6.79 -5.68,11.8 -3.75,1.01 -5.85,1.86 -9.16,3.82 -4.33,2.41 -6.62,4.23 -9.84,7.88 -2.29,-3.99 -2.75,-7.2 -1.59,-11.7 0.75,-3.17 1.72,-5.08 4.09,-7.3 1.49,-1.45 2.51,-2.13 4.47,-2.88 1.69,-3.74 2.95,-5.75 5.68,-8.91 4.4,-5 7.79,-7.35 13.99,-9.81 -4.49,-0.51 -7.3,-0.17 -11.46,1.59 -4.05,1.76 -6.02,3.68 -8.89,6.96 -2.63,3.19 -3.82,5.34 -5,9.23 -3.92,1.11 -6.11,2.05 -9.57,4.14 -3.48,2.08 -5.34,3.5 -8.22,6.38 -1.71,-2.71 -2.13,-4.74 -1.88,-7.96 0.27,-3.74 1.62,-5.78 3.99,-8.58 2.47,-2.88 4.49,-4.23 8.06,-5.41 0.84,-6.02 2.29,-9.6 6.02,-14.51 3.64,-4.74 6.55,-7.17 12.03,-9.54 4.25,-1.87 6.96,-2.37 11.57,-2.54 6.91,-0.27 10.56,2.44 17.26,4.04 5.95,1.38 9.14,3.72 15.25,3.57 6.74,-0.21 11.02,-1.4 16.49,-5.44 5.09,-3.72 7.54,-7 9.66,-12.92 2.58,-1.02 3.99,-1.89 6.19,-3.49 2.54,-1.98 3.84,-3.38 5.68,-6.04 -4.44,2.05 -7.18,2.97 -12.03,3.79 -5.4,0.94 -8.61,0.99 -14.02,0.31 1.16,-1.44 1.81,-2.29 2.89,-3.81 5.78,-8.03 5.18,-14.74 10.46,-23.11 4.54,-7.13 7.14,-11.43 13.68,-16.78 9.47,-7.8 17.29,-8.82 29.15,-12.06 7.65,-2.1 12.44,-1.26 20.01,-3.8 3.91,-1.38 6.91,-1.16 9.79,-4.15 2.03,-2.06 3.11,-3.65 3.5,-6.53 0.29,-2.2 0.13,-3.55 -0.73,-5.6 4.98,-2.8 8.1,-3.89 13.68,-4.91 6.85,-1.18 11.07,-1.07 17.81,0.68 4.11,1.02 6.68,1.58 10.13,3.99 3.53,2.44 5.6,4.24 7.3,8.22 2.13,4.86 2.13,8.77 0,13.68 -5.15,3.04 -7.88,5.24 -12.04,9.56z"/>
       <g>
        <path class="fil0" d="M885.73 632.9c-0.51,-3.44 -0.92,-5.59 -3.04,-8.34 -2.18,-2.71 -5.18,-3.89 -7.52,-4.98 -2.25,-1.02 -6.86,-1.67 -9.33,-1.67l-2.88 -0.01c-2.66,0 -4.23,0.13 -6.79,-0.63 -2.49,-0.68 -4.14,-1.02 -5.93,-2.9l-8.67 -9.11c1.21,0.53 2.08,0.65 3.46,0.92 1.21,0.23 1.88,0.31 3.07,0.31l12.42 0c2.74,0 4.28,0.34 6.94,0.95 1.96,0.5 3,0.84 4.89,1.59l-6.65 -10.56c-1.58,-2.46 -2.49,-4.06 -4.89,-5.68 -2.42,-1.69 -4.18,-2.53 -7.2,-2.53l-15.51 0c-2.54,0 -4.21,0.17 -6.48,-1.02 -2.18,-1.11 -2.93,-2.47 -4.47,-4.33l-6.77 -8.56c1.52,0.84 2.51,1.08 4.18,1.43 1.43,0.33 2.23,0.51 3.65,0.51l13.61 0c3.31,0 5.22,0.51 8.36,1.45 2.32,0.74 3.63,1.25 5.8,2.46l-12.62 -16.53c-1.33,-1.69 -2.18,-2.63 -4.04,-3.72 -2.13,-1.18 -3.6,-1.63 -6.04,-1.63l-12.02 0c-2.34,0 -3.79,-0.1 -5.92,-1.02 -2.18,-1.01 -3.5,-1.78 -4.66,-3.82l-10.01 -16.82c8.12,-0.05 12.95,-0.99 20.5,-4.14 8.77,-3.63 14.23,-6.45 19.75,-14.16 5.56,-7.81 7.35,-13.97 6.98,-23.54 -0.33,-8.06 -1.95,-12.88 -6.33,-19.7 -4.14,-6.39 -7.83,-9.19 -14.22,-13.3 -6.38,-4.2 -11.02,-4.59 -18.05,-7.64 -8,-3.45 -16.34,-1.33 -20.47,-9.04 -1.91,-3.6 -3.31,-6.38 -2.08,-10.27 1.21,-3.64 3.31,-5.8 6.91,-6.98 -8.56,-3.12 -15.01,-2.95 -23.4,0.7 -5.8,2.52 -9.57,4.59 -12.77,10.08 -3.45,6.02 -4.01,11.12 -1.91,17.74 -8.16,4.15 -12.57,6.91 -19.94,12.37 -10.18,7.55 -15.49,12.54 -23.66,22.21 7.88,-1.98 12.42,-2.78 20.47,-3.82 7.25,-0.92 11.41,-1.18 18.73,-1.26 -0.33,-4.15 0.22,-6.79 2.2,-10.46 3.58,-6.67 9.01,-10.01 16.59,-10.17 -3.31,1.33 -5.08,2.76 -7.15,5.65 -2.74,3.84 -4.59,7.45 -2.76,11.8 1.59,3.87 4.4,6.14 8.56,6.3 2.28,0.15 3.78,-0.23 5.73,-1.52 -0.6,-2.53 -0.55,-4.14 0.08,-6.67 1.74,-6.77 7.59,-11 14.58,-10.46 -2.18,1.07 -3.27,1.96 -4.84,3.79 -4.74,5.56 -5.3,12.83 -0.97,18.71 3.63,4.9 8.58,6.84 14.58,5.7 -0.92,-1.58 -1.23,-2.66 -1.28,-4.45 -0.03,-5.34 5.44,-8.56 10.83,-8.56 5.75,0.08 10.58,4.23 10.85,10.01 0.56,11.56 -9.38,10.71 -17.49,11.77 -5.27,0.73 -8.25,-1.09 -13.44,-2.1 -7.56,-1.45 -11.65,-3.07 -19.25,-4.43 -16.63,-3.09 -26.29,-4.66 -43.17,-3.81 -13.22,0.68 -20.54,2.89 -33.55,5.39 -21.02,4.04 -32.34,8.77 -53.32,13 -23.4,4.67 -36.69,8.92 -60.52,9.16 -25.52,0.34 -40.32,-1.69 -64.77,-8.8 2.63,4.64 3.65,7.61 4.49,12.96 0.46,2.97 0.41,4.66 0.41,7.64 -2.46,-6.05 -4.3,-9.26 -7.96,-14.6 -4.83,-7.2 -10.17,-9.38 -14.59,-16.87 -1.02,-1.77 -1.93,-2.71 -2.53,-4.74 -0.61,-2.13 -0.78,-3.49 -0.27,-5.68 0.36,-1.74 0.82,-2.74 1.88,-4.14 0,1.59 0.24,2.53 0.92,3.87 0.53,0.94 0.87,1.45 1.62,2.13l15.25 15.25c1.72,-10.49 1.38,-17.04 -1.53,-27.29 -2.19,-7.59 -4.14,-11.84 -8.66,-18.37 2.52,-6.86 3.31,-11.12 3.51,-18.39 0.12,-5.6 -0.2,-8.8 -1.5,-14.28 -3.34,2.01 -5.17,3.21 -8.31,5.56 -2.1,1.54 -3.7,2.13 -5.3,4.18 -1.86,2.42 -2.53,4.28 -2.97,7.3 -0.34,2.78 -0.18,4.49 0.68,7.15 -3.12,-1.92 -4.74,-3.68 -6.36,-6.99 -1.52,-3.14 -2.53,-5.44 -1.59,-8.82 0.73,-2.49 1.83,-3.82 3.82,-5.54 3.12,-2.63 6.19,-1.62 10.08,-2.93 3.64,-1.25 5.68,-2 9.23,-3.48 -0.17,-0.7 -0.34,-1.11 -0.6,-1.74 -0.34,-0.65 -0.58,-1.04 -0.99,-1.57 -5.27,-1.33 -8.49,-1.63 -13.97,-1.14 -3,0.24 -4.69,0.56 -7.56,1.36 -3.92,-4.43 -7.09,-6.5 -12.72,-8.27 -3.48,-1.06 -5.6,-1.35 -9.16,-1.23 -4.59,-4.01 -7.83,-5.8 -13.65,-7.4 -5.3,-1.42 -8.56,-0.82 -13.98,-0.82 -5.5,0 -8.75,-0.6 -14.04,0.82 -5.8,1.6 -9.11,3.39 -13.61,7.4 -3.63,-0.12 -5.75,0.18 -9.23,1.23 -5.6,1.77 -8.82,3.84 -12.67,8.27 -2.94,-0.8 -4.64,-1.12 -7.59,-1.36 -5.49,-0.48 -8.71,-0.19 -13.99,1.14 -0.34,0.53 -0.51,0.87 -0.85,1.49 -0.33,0.65 -0.51,1.08 -0.74,1.82 3.54,1.48 5.58,2.22 9.23,3.48 3.89,1.31 6.95,0.29 10.08,2.93 2.05,1.72 3.11,3.04 3.81,5.53 0.94,3.39 -0.09,5.68 -1.62,8.83 -1.62,3.31 -3.17,5.07 -6.35,6.98 0.89,-2.66 1.03,-4.38 0.68,-7.15 -0.41,-3.02 -1.11,-4.88 -2.98,-7.3 -1.59,-2.06 -3.16,-2.63 -5.24,-4.19 -3.14,-2.34 -5,-3.6 -8.31,-5.7 -1.26,5.49 -1.59,8.77 -1.53,14.43 0.18,7.27 1.02,11.55 3.58,18.39 -4.59,6.52 -6.55,10.77 -8.75,18.37 -2.88,10.25 -3.21,16.79 -1.43,27.28l15.18 -15.25c0.75,-0.68 1.09,-1.18 1.59,-2.13 0.68,-1.33 0.95,-2.27 0.95,-3.86 1.08,1.4 1.52,2.38 1.91,4.13 0.46,2.2 0.29,3.55 -0.29,5.68 -0.63,2.03 -1.5,2.98 -2.57,4.74 -4.39,7.49 -9.74,9.66 -14.57,16.87 -3.65,5.34 -5.44,8.6 -7.98,14.59 -0.94,-2.13 -1.23,-3.48 -1.28,-5.77 0,-2.1 0.27,-3.39 1.07,-5.35 -8.1,-4.74 -12.59,-7.65 -20.04,-13.32 -7.1,-5.41 -11.62,-8.16 -17.44,-14.91 -6.96,-7.98 -15.11,-12.72 -13.98,-23.16 0.61,-5.41 3.8,-7.64 5.83,-12.67 2.53,-6.33 5.92,-9.71 5.6,-16.51 -0.31,-7.22 -2.56,-11.97 -7.9,-16.79 0.38,-4.3 -0.18,-7.04 -2.28,-10.78 -2.8,-5.19 -6.28,-7.85 -12.06,-9.21 1.96,3.29 2.51,5.7 2.25,9.5 -0.2,3.41 -0.98,5.44 -2.84,8.26 1.98,2.69 2.63,4.89 2.54,8.22 -0.18,3.99 -1.45,6.62 -4.49,9.21 0.94,-5.32 0.33,-8.87 -2.2,-13.63 -2.63,-4.85 -5.34,-7.37 -10.41,-9.52 -1.53,-6.76 -7.06,-11.17 -14,-11.09 -4.15,0.04 -6.86,1.18 -9.81,4.14 3.69,0.46 6.11,1.93 8.19,5.04 1.18,1.77 1.72,3 1.96,5.1 -1.45,0.89 -2.13,1.58 -3.21,2.85 -1.28,1.62 -1.86,2.76 -2.52,4.76 5.39,0.24 8.87,1.96 12.32,6.02 3.68,4.2 4.84,8.1 4.19,13.61 -1.11,-3.26 -2.13,-5.03 -4.42,-7.56 -5.68,-6.24 -12.47,-8.29 -20.65,-6.29 -3.26,-3.48 -6.67,-4.8 -11.41,-4.54 -4.98,0.34 -8.31,2.25 -11.09,6.39 3.21,0.17 5.17,0.77 7.88,2.53 2.13,1.3 3.14,2.32 4.57,4.35 -1.35,1.62 -2.03,2.63 -2.94,4.49 -1.96,4.08 -2.54,6.9 -2.23,11.45 0.33,4.96 1.21,8.22 4.42,12.02 3.48,4.04 6.77,6.62 12.09,6.33 1.71,-0.07 2.75,-0.41 4.44,-0.92 1.86,-0.58 2.8,-2.03 4.74,-1.83 4.74,0.56 6.38,6.94 0,9.14 -1.69,0.58 -2.7,-0.61 -4.44,-0.94 -2.18,-0.51 -3.26,-1.53 -5.46,-1.26 -2.9,0.24 -4.59,1.53 -6.43,3.79 -1.96,2.3 -2.63,4.24 -2.69,7.3 -2.15,0.6 -3.6,0.6 -5.73,0 -1.59,-0.51 -2.53,-1.08 -3.82,-2.25 -1.08,4.11 -0.48,7.3 1.96,10.83 2.46,3.45 5.27,5.03 9.47,5.32 2.74,5.68 5.78,8.65 11.46,11.36 2.75,1.38 4.49,2.29 7.54,2.2 3.82,-0.08 5.51,-2.2 8.92,-3.8 2.27,-1.01 3.22,-2.56 5.73,-2.8 2.66,-0.38 4.42,0.1 6.62,1.53 3.14,2.13 4.54,4.79 4.43,8.53 -0.1,4.85 -3.65,7.4 -8.06,9.47 -3.31,1.58 -5.75,1.83 -9.33,1.16l7.88 7.37c2.74,2.44 4.4,3.79 7.71,5.3 3.48,1.58 5.78,2.42 9.57,2.42l1.5 -0.02c3.77,0 5.92,-0.05 9.52,0.85 3.92,1.01 6.55,1.35 9.33,4.15l8.17 7.98c-2.06,-0.83 -3.34,-1.04 -5.54,-1.41 -1.79,-0.31 -2.8,-0.48 -4.59,-0.48l-1.93 0c-4.15,0 -6.53,-0.41 -10.61,-1.35 -3.12,-0.68 -4.81,-1.18 -7.79,-2.29l12.88 12.3c2.63,2.49 4.33,3.82 7.64,5.35 3.55,1.57 5.75,2.37 9.57,2.37l1.53 0c3.72,0 5.92,0 9.59,0.89 3.8,0.97 6.43,1.31 9.31,4.11l8.32 7.98c-2.03,-0.83 -3.31,-1.04 -5.51,-1.38 -1.79,-0.31 -2.8,-0.48 -4.57,-0.48l-2.57 0c-4.14,0 -6.53,-0.43 -10.58,-1.38 -3.14,-0.68 -4.84,-1.16 -7.81,-2.25l14.92 13.37c1.88,1.69 2.97,2.63 5.26,3.72 2.47,1.09 3.99,1.63 6.62,1.63l17.73 0c-15.01,8.36 -19,12.59 -32.15,19.38 -14.36,7.32 -21.95,17.16 -38.07,16.13 -6.21,-0.39 -9.41,-2.49 -15.5,-3.78 -3.99,-0.84 -6.19,-1.91 -10.17,-1.93 -5.34,0 -8.77,0.41 -13.29,3.21 -3.48,2.03 -5.22,3.79 -7.3,7.25 4.06,-1.4 6.77,-1.66 11.1,-0.94 4.74,0.8 7.49,2.13 11.12,5.37 -3.58,-0.75 -5.6,-1.02 -9.26,-0.94 -7.15,0.09 -11.82,0.7 -17.72,4.74 -5.75,3.89 -9.23,7.47 -10.82,14.23 -0.88,3.89 -0.88,6.31 0,10.17 -1.79,1.36 -2.71,2.3 -4.09,4.06 -2.29,2.8 -4.06,4.67 -4.16,8.32 -0.07,3.64 1.02,6.19 3.82,8.65 1.36,-3.99 3.31,-6.28 6.96,-8.31 2.47,-1.4 4.14,-1.86 7.04,-1.93 1.01,0.83 1.59,1.26 2.8,1.93 1.52,0.78 2.43,1.13 4.14,1.53l3.5 -4.06c-0.61,-6.7 0.78,-11.32 5.08,-16.54 5.08,-6.14 10.76,-8.62 18.73,-8.21 -7.4,2.01 -11.79,5.92 -14.6,12.97 -1.76,4.33 -2.03,7.2 -1.25,11.77 -3.31,1.69 -5,3.48 -6.62,6.79 -2.47,5.19 -2.13,9.98 1.21,14.74 2.1,-3.74 3.87,-5.68 7.27,-8.21 3.89,-2.98 6.6,-4.16 11.37,-5.1 2.46,0.73 3.89,1.02 6.45,1.26 3.8,0.46 6.02,0.36 9.77,-0.32 -1.55,-2.8 -2.06,-4.71 -2.25,-7.9 -0.34,-7.78 2.99,-14.3 10.17,-17.11 3.07,-1.18 5.05,-1.43 8.25,-0.97 -3.31,0.88 -5.17,1.98 -7.55,4.44 -3.74,3.65 -6.04,7.2 -5.09,12.37 0.68,3.89 2.29,6.36 5.68,8.56 2.2,1.38 3.74,1.88 6.35,1.95 -0.03,2.06 -0.17,3.14 -0.68,5.1 -0.51,2.37 -1.01,3.63 -2.19,5.75 5.07,-0.51 8.14,-1.79 12.03,-5.05 2.78,-2.25 4.11,-3.94 5.75,-7.08 2.63,-0.68 4.15,-1.48 6.33,-3.22 4.49,-3.67 7.11,-7.78 6.21,-13.46 -0.51,-3.58 -1.67,-5.73 -4.3,-8.15 -0.53,-4.93 3.55,-9.43 8.56,-9.5 5.3,0 9.33,5.34 8.56,10.58 -0.27,1.79 -0.68,2.81 -1.77,4.23l15.42 -0.14c2.37,-0.09 3.79,-0.43 5.92,-1.52 2.47,-1.18 3.82,-2.23 5.18,-4.54l6.19 -10.22c1.11,-1.86 1.95,-2.93 3.82,-4.19 1.68,-1.23 2.78,-2.18 4.9,-2.18l11.12 0.19c-1.28,0.75 -1.96,1.26 -3.03,2.28 -0.87,0.94 -1.43,1.52 -2.08,2.69l-5 8.41c-1.55,2.56 -2.88,3.81 -5.08,5.87 -1.58,1.52 -2.56,2.27 -4.33,3.45l18.39 -0.23c2.47,-0.05 3.89,-0.39 6.02,-1.45 2.37,-1.26 3.74,-2.3 5.17,-4.59l13.05 -20.33c-2.83,-2.43 -12.03,-6.94 -14.74,-14.55 -1.21,-3.21 -1.62,-5.24 -1.44,-8.72 0.09,-2.88 0.6,-4.54 1.62,-7.28 0.92,-2.7 2.29,-3.84 3.14,-6.55 0.68,-2.1 1.02,-3.26 1.09,-5.46 0,-1.72 -0.08,-2.74 -0.51,-4.43l6.75 3.65c1.57,0.89 2.42,1.69 3.36,3.31 0.92,1.64 1.13,2.88 1.01,4.74 -0.09,1.96 -0.94,2.88 -1.52,4.74 -1.07,2.97 -2.39,4.49 -2.74,7.61 -0.31,3.21 -0.24,5.24 1.12,8.21 1.62,3.82 4.23,4.91 7.44,7.45 4.09,3.31 6.8,4.93 11.63,6.94l0 -29.1 10.74 0 0 26.9c0,2.37 0.27,3.92 1.55,6 1.02,1.78 1.93,2.9 3.79,3.84l8.58 4.11c3.04,1.48 5.22,1.48 8.56,1.21 2.7,-0.18 4.23,-0.48 6.7,-1.5l15.44 -6.7c-1.96,0.24 -3.14,0.14 -5.1,-0.33 -2.13,-0.63 -3.07,-1.6 -5.03,-2.63l-19.99 -10.69c2.39,-1.93 3.49,-4.04 4.4,-7.17 0.87,-2.71 0.87,-4.35 0.7,-7.15 -0.27,-2.66 -1.04,-4.02 -1.62,-6.65 -0.39,-1.6 -0.93,-2.44 -0.93,-4.16 -0.09,-1.59 0,-2.61 0.58,-4.06 0.55,-1.25 0.84,-2.1 2.03,-2.87l8.56 -5.68c-0.23,1.45 -0.33,2.29 -0.33,3.81 0,1.87 0.27,2.88 0.63,4.74 0.48,2.29 1.33,3.4 1.92,5.68 0.6,2.43 0.94,3.82 0.94,6.35 0.09,4.84 -0.73,7.71 -2.86,12.02l20.65 11.43c2.05,1.11 3.34,1.68 5.7,1.93 2.27,0.27 3.63,0.08 5.75,-0.65l19 -7.47c-2.01,0.24 -3.24,0.22 -5.09,-0.28 -2.2,-0.56 -3.14,-1.58 -5.08,-2.59l-19.65 -10.82c-1.21,-0.61 -1.96,-0.78 -3.17,-1.23 -1.35,-0.53 -2.1,-0.8 -3.55,-1.26 0.95,-1.4 1.12,-2.29 1.63,-3.77 0.74,-2.23 1.18,-3.46 1.59,-5.75 0.94,-5.27 0.33,-8.41 -0.68,-13.63 -0.92,-5.34 -3.46,-7.8 -4.33,-13.22 -0.51,-1.55 -0.68,-2.47 -0.58,-4.09 0.03,-1.59 -0.27,-2.93 0.92,-3.89l10.36 -8.71c-0.27,1.58 -0.36,2.52 -0.27,4.14 0,1.26 0.03,1.93 0.27,3.17 0.51,2.48 1.59,3.69 2.53,6.06 1.02,2.47 1.6,3.89 2.54,6.43 1.69,-1.68 2.61,-2.7 4.1,-4.57 2.59,-3.31 4.11,-5.26 5.37,-9.16 1.11,-3.31 1.45,-5.24 1.31,-8.73 -0.27,-3.48 -0.53,-5.75 -2.47,-8.63l-5.13 -7.64c-1.23,-1.88 -1.66,-3.24 -1.83,-5.44 -0.27,-2.97 0.61,-4.74 1.83,-7.45l5.13 -11.79c-0.68,2.13 -0.87,3.48 -0.61,5.75 0.22,1.62 0.44,2.63 1.18,4.09l4.09 7.64 5.24 6.94 5.17 11.94c0.75,4.32 0.75,6.95 0,11.28 -1.03,5.35 -2.8,8.06 -5.6,12.72 -4.57,7.71 -12.78,14.23 -15.58,16.94 0,0 0.29,2.27 0.27,3.72 -0.1,3.58 -0.78,5.59 -2.2,8.9l26.59 14.21c2.13,1.12 3.4,1.79 5.73,2.01 2.24,0.19 3.79,0.38 5.82,-0.73l12.98 -6.94c-1.88,0.68 -3.34,0.53 -5.1,-0.34 -2.01,-0.92 -2.7,-2.36 -3.48,-4.42 -1.86,-4.98 1.93,-9.93 6.3,-12.01 17.77,-8.53 36.33,-14.99 59,-25.57 25.47,-11.97 38.18,-22.38 64.38,-32.65 14.14,-5.51 21.73,-12.28 36.96,-12.28 9.45,0 15.76,-0.22 23.78,4.84 3.89,2.44 6.15,4.15 8.68,7.98 2.27,3.29 2.93,5.68 3.82,9.56 2.19,9.33 -4.19,14.87 -3.19,24.42 1.18,10.68 3.24,17.43 10.17,25.67 5.78,6.84 11.07,8.72 18.95,13.01 5.3,2.8 9.84,2.05 14.04,6.3 1.98,2.03 3.34,3.29 4.11,6 0.63,2.29 0.63,3.79 0,6.06 4.39,0.13 6.98,-0.31 11.09,-1.93 6.19,-2.35 9.6,-4.98 13.32,-10.45l17.1 0c1.67,2.85 2.18,4.88 2.25,8.16 0.04,3.75 0,6.5 -2.53,9.24 -2.63,2.8 -5.51,2.6 -9.28,3.21 -5.27,0.75 -8.32,-1.55 -13.66,-1.28 -5.97,0.22 -9.86,-0.09 -15.13,2.81 -5.9,3.29 -8.8,6.93 -11.12,13.34 -1.45,4.18 -1.76,7 -1.26,11.41 -2.42,1.54 -3.64,2.87 -5.07,5.41 -2.76,4.95 -2.76,9.6 0,14.58 2.7,-3.12 4.49,-4.74 7.95,-6.94 2.78,-1.88 4.49,-2.71 7.59,-3.82 0.38,-9.16 4.93,-15.76 13.32,-19.36 4.91,-2.13 8.44,-2.42 13.66,-1.28 -6.11,1.3 -9.71,3.36 -13.95,7.92 -5.44,5.95 -7.44,11.37 -6.98,19.31 -1.74,2.42 -2.29,4.38 -2.13,7.3 0.22,3.12 1.13,5.17 3.38,7.3 4.33,-7.05 9.06,-10.58 17.14,-12.64 4.09,-1.08 6.6,-1.16 10.81,-0.65 -1.83,-6.84 -0.68,-12.22 3.77,-17.72 4.69,-5.77 10.18,-8.06 17.53,-7.3 -4.35,1.16 -6.89,2.94 -9.62,6.6 -2.48,3.49 -3.84,6.2 -3.45,10.51 0.41,4.76 2.32,7.9 6.35,10.44 -0.17,2.37 0.05,3.8 0.92,6 0.99,2.39 1.96,3.68 3.92,5.18 0.68,-3.29 1.69,-5.25 4.06,-7.71 1.66,-1.69 2.87,-2.47 5.03,-3.46 3.57,-1.62 6.06,-0.51 9.88,-1.28 6.35,-1.18 11.02,-0.43 15.83,-4.75 3.55,-3.14 5.41,-5.85 6.09,-10.59 0.9,-6.1 -0.87,-10.73 -5.46,-14.74 0.97,-6.28 1.18,-9.86 0.97,-16.19 -0.24,-6.6 -0.78,-10.29 -2.34,-16.75l2.01 0c2,0 2.46,0.24 5.12,0.92 1.93,0.44 4.21,2.54 5.56,5.18 0.97,-3.6 1.08,-5.85 0.51,-9.52l0 0zm-409.92 -170.07c-0.19,2.81 -1.11,5 -3.24,7.38 -2.28,2.51 -4.16,3.99 -7.2,3.99l-7.54 0c1.95,1.95 3.54,3.45 3.54,6.55 0,3.99 -3.21,7.2 -7.2,7.2 -3.99,0 -7.2,-3.21 -7.2,-7.2 0,-2.05 0.84,-3.87 2.19,-5.17l1.36 -1.38 -8.21 0c-1.86,0 -2.98,1.03 -4.4,2.48l0 -2.08c0,-1.21 -0.09,-2.32 0,-3.34 0.18,-2.13 2.13,-4.54 4.4,-4.54l24.07 0c3.31,0 7.03,-1.53 9.42,-3.89l0 0zm-26.01 -29.12c1.31,0 2.08,0.33 3.19,0.94 1.13,0.63 1.69,1.18 2.53,2.24l7.81 10.13c0.58,0.73 0.68,1.3 1.25,1.91 0.88,0.75 1.5,1.07 2.56,1.25l-6.33 0c-1.91,0 -3.07,-0.31 -4.79,-1.25 -1.59,-0.97 -2.29,-1.96 -3.46,-3.48l-6.3 -8.27c-0.53,-0.77 -0.82,-1.23 -1.5,-1.91 -0.84,-0.73 -1.38,-1.11 -2.32,-1.57 0,0 7.35,0 7.35,0zm-25.45 -3.8c1.83,0 2.98,0.58 4.57,1.58 1.35,0.87 2.1,1.52 3.04,2.85l9.23 13.32c0.61,0.83 0.95,1.23 1.63,1.91 1.11,1.07 1.86,1.58 3.21,2.2l-8.46 0c-1.96,0 -3.27,-0.37 -4.84,-1.58 -1.23,-0.94 -1.58,-1.86 -2.37,-3.17l-7.64 -11.74c-0.75,-1.18 -1.18,-1.86 -2.23,-2.83 -1.43,-1.36 -2.43,-1.96 -4.25,-2.54l8.1 0zm-21.03 3.8c1.28,0 2.03,0.33 3.12,0.94 1.18,0.63 1.78,1.18 2.56,2.24l7.88 10.13c0.51,0.73 0.61,1.3 1.26,1.91 0.78,0.75 1.45,1.07 2.51,1.25l-6.3 0c-1.96,0 -3.14,-0.31 -4.74,-1.25 -1.72,-0.97 -2.39,-1.96 -3.54,-3.48l-6.23 -8.27c-0.58,-0.77 -0.94,-1.23 -1.63,-1.91 -0.79,-0.73 -1.35,-1.11 -2.29,-1.57 0,0 7.4,0 7.4,0zm-9.01 33.01l24.01 0c1.44,0 2.29,0.68 3.4,2.01 1.48,1.74 1.02,3.79 1.02,5.87l-0.22 1.83c-1.23,-1.21 -2.25,-2.25 -4.21,-2.25l-8.21 0.01c2.05,1.95 3.58,3.45 3.58,6.55 0,3.99 -3.24,7.2 -7.18,7.2 -3.94,0 -7.15,-3.21 -7.15,-7.2 0,-2.05 0.75,-3.87 2.13,-5.17l1.43 -1.38 -7.54 0c-3.14,0 -4.91,-1.48 -7.2,-3.99 -2.13,-2.37 -3.14,-4.57 -3.24,-7.38 2.3,2.37 6.05,3.89 9.41,3.89l0 0zm-9.98 131.32l-2.88 8.22c-0.84,2.46 -0.94,3.89 -1.38,6.43 -0.78,5.22 -0.92,8.24 -0.53,13.48 -1.58,-1.28 -2.42,-2.13 -3.77,-3.65 -1.45,-1.59 -2.03,-2.63 -3.22,-4.34 -2.63,-4.04 -3.74,-6.67 -5.34,-11.05l-0.34 -1.35c-4.69,-1.53 -11.96,-1.96 -15.93,-6.99 -3.68,-4.59 -4.01,-8.41 -4.84,-14.21 -0.77,-4.76 -0.77,-7.64 0,-12.47l4.49 -13.29 4.54 -7.64 3.58 -8.51c0.68,-1.65 0.85,-2.79 1.02,-4.54 0.24,-2.44 0.13,-3.99 -0.51,-6.36l6.29 9.57c1.52,2.39 1.59,4.2 1.59,6.96 0.05,2.97 -0.17,4.83 -1.59,7.37l-6.29 11.94c-1.78,3.4 -1.96,5.77 -2.13,9.59 -0.17,3.8 -0.58,6.29 1.07,9.67 2.52,5.17 6.48,7.88 12.26,8.22 0.07,-2.42 0.17,-3.82 0.63,-6.2 0.48,-2.7 1.4,-4.08 1.83,-6.79 0.18,-1.23 0.24,-1.96 0.34,-3.12 0,-1.62 -0.1,-2.53 -0.34,-4.18l10.42 14.93c1.11,1.48 1.18,2.71 1.28,4.49 0.17,1.52 0.17,2.42 -0.27,3.79l0 0zm103.37 -103.74c-1.98,3.55 -3.69,5.42 -6.99,7.88 -3.48,2.66 -6.11,3.04 -10.12,4.74 -0.89,0.44 -1.49,0.37 -2.25,1.04 -0.84,0.75 -0.84,1.67 -1.28,2.78 -0.61,1.79 -0.34,2.98 -0.94,4.76 -0.75,2.37 -1.26,3.79 -2.83,5.75 -2.18,2.53 -4.04,3.72 -7.33,4.49 -0.04,4.66 -0.26,7.35 -0.84,11.94 -0.68,5.7 -1.38,8.82 -2.85,14.33 0.89,1.72 1.3,2.75 1.91,4.66 0.94,2.98 1.23,4.84 1.11,7.98 -0.17,4.39 -0.43,7.45 -3.14,10.92 -5.25,6.7 -13.28,2.29 -21.78,2.29 -8.58,0 -16.63,4.4 -21.87,-2.29 -2.71,-3.48 -2.98,-6.53 -3.14,-10.92 -0.1,-3.14 0.19,-5 1.08,-7.98 0.61,-1.91 1.04,-2.94 1.96,-4.66 -1.52,-5.51 -2.1,-8.63 -2.88,-14.33 -0.6,-4.59 -0.77,-7.28 -0.84,-11.94 -3.31,-0.78 -5.17,-1.96 -7.3,-4.49 -1.59,-1.96 -2.13,-3.38 -2.87,-5.75 -0.58,-1.78 -0.34,-2.97 -0.92,-4.76 -0.44,-1.11 -0.37,-2.03 -1.28,-2.78 -0.68,-0.68 -1.35,-0.6 -2.23,-1.04 -4.06,-1.68 -6.67,-2.08 -10.15,-4.74 -3.31,-2.46 -5,-4.33 -6.96,-7.88 -2.27,-4.06 -3.55,-6.86 -3.21,-11.43 0.24,-2.63 0.33,-3.26 1.02,-5.8 0.38,-1.31 1.18,-2.84 1.78,-4.04 0.73,-1.43 1.43,-2.05 2.53,-3.16 1.18,-1.18 2.03,-1.74 3.49,-2.57l0 13.17c0,4.84 0.92,7.98 3.79,11.89 2.63,3.63 5.12,5.08 9.26,7.01 3.97,1.86 6.6,2.47 11.1,2.52 -0.34,3.09 -0.18,4.95 0.6,7.92 0.84,3.04 1.11,5.24 3.48,7.28 2.37,2.03 4.52,2.13 7.61,2.19 2.98,0.2 4.76,-0.23 7.47,-1.42 2.1,-1.02 4.49,-1.28 4.93,-3.65 0.15,-0.92 0,-1.53 -0.36,-2.52 -0.61,-1.98 -2.27,-2.42 -3.39,-4.18 -0.92,-1.53 -1.52,-2.44 -2.03,-4.21 -0.53,-1.57 -0.94,-2.58 -0.68,-4.2 0.14,-1.26 -0.1,-2.99 1.18,-2.99l17.54 0c1.26,0 1.02,1.73 1.23,2.99 0.29,1.62 -0.22,2.63 -0.73,4.2 -0.51,1.77 -1.07,2.69 -2.03,4.21 -1.12,1.76 -2.81,2.2 -3.41,4.18 -0.29,0.99 -0.51,1.6 -0.34,2.52 0.43,2.37 2.8,2.63 4.93,3.65 2.71,1.18 4.48,1.62 7.45,1.42 3.14,-0.07 5.27,-0.17 7.64,-2.19 2.38,-2.03 2.66,-4.23 3.49,-7.28 0.84,-2.97 0.92,-4.83 0.68,-7.92 4.39,-0.05 7.03,-0.66 11.05,-2.52 4.13,-1.93 6.57,-3.39 9.21,-7.01 2.88,-3.91 3.82,-7.05 3.82,-11.89l0 -13.17c1.45,0.83 2.27,1.38 3.48,2.57 1.13,1.11 1.86,1.73 2.53,3.16 0.61,1.21 1.43,2.74 1.79,4.04 0.75,2.53 0.8,3.16 1.01,5.8 0.34,4.57 -0.93,7.37 -3.19,11.43z"/>
       </g>
       <path class="fil0" d="M445.55 210.19c0.13,5.97 -0.41,12.08 -1.59,17.93 -4.59,-1.21 -8.99,-1.18 -13.71,-1.23 -4.61,0 -9.18,0.18 -13.7,1.18 -1.38,-6.81 -1.67,-13.51 -1.59,-20.42l6.19 7.37c0.58,-1.23 3.21,-7.83 4.66,-8.24l0.34 -0.1c1.73,0.92 2.19,0.84 4.15,0.84 1.98,0 2.47,0.05 4.33,-0.94 1.62,0.68 2.61,3.94 3.29,5.32 0.53,1.13 1.04,2.27 1.4,3.12l6.24 -7.37c0,0 0,2.54 0,2.54z"/>
       <path class="fil0" d="M651.69 119.63c-10.63,1.98 -16.83,2.58 -27.68,2.56 -18.44,-0.05 -28.23,-8.85 -46.6,-7.69 -10.42,0.65 -16.78,0.53 -26.18,4.98 -10.58,5.03 -17.62,9.33 -22.42,20.06 -4.4,9.91 -4.69,17.67 -0.88,27.8 3.72,9.78 10.51,15.01 18.3,19.77 11.52,7.1 19.62,6.86 33.13,7.9 19.05,1.48 29.47,-2.53 47.81,-6.65 15.73,-3.5 24.14,-7.39 39.58,-11.84 16.65,-4.85 26.11,-7.47 42.85,-11.94 6.7,-6.57 10.81,-10.03 18.39,-15.53 7.93,-5.7 12.72,-8.61 21.46,-12.98l-0.73 -5.41c-16.39,3.24 -25.55,5.41 -41.67,9.84 -20.04,5.53 -30.79,10.58 -50.73,16.48 -17.74,5.25 -27.6,9.16 -45.8,12.37 -10.27,1.83 -16.07,3.92 -26.52,3.34 -9.06,-0.5 -15.93,0.94 -22.86,-4.98 -3.5,-2.94 -6.06,-4.98 -6.89,-9.45 -0.58,-3.07 -0.82,-5.39 0.95,-7.93 1.59,-2.29 3.54,-3.4 6.35,-3.5 3.55,-0.1 6.43,1.69 7.61,5.08 0.94,3.07 0.17,5.85 -2.27,7.93 3.82,0.36 6.09,0.31 9.84,-0.32 4.49,-0.73 7.61,-0.48 10.95,-3.46 3.09,-2.75 4.54,-5.44 4.59,-9.52 0.05,-4.85 -2.03,-8.12 -5.97,-10.87 -2.6,-1.79 -4.49,-2.37 -7.64,-2.47 4.59,-1.53 8.03,-1.28 12.35,0.97 2.25,1.16 3.51,2.08 5.08,4.14 2.47,3.24 3.24,6.09 2.69,10.12 8.05,-0.68 12.72,-1.83 20.11,-4.98 7.56,-3.21 11.19,-6.33 17.81,-11.17 6.14,-4.54 9.45,-7.35 14.96,-12.64z"/>
       <path class="fil0" d="M430.37 234.81c-5.42,0 -9.41,0.03 -13.39,3.65 -1.08,0.97 -1.79,1.52 -2.47,2.78 -1.43,2.69 -1.18,5 0.05,7.73 2.58,5.61 9.57,1.86 15.81,1.86 6.19,0 13.14,3.75 15.78,-1.86 1.21,-2.73 1.43,-5.05 0,-7.73 -0.7,-1.26 -1.38,-1.82 -2.42,-2.78 -4.05,-3.63 -8.02,-3.65 -13.36,-3.65z"/>
       <path class="fil0" d="M719.8 265.75c-3.26,3.41 -6.06,5.08 -7.42,9.57 -0.94,3.07 -0.43,8.15 -0.43,8.15l0.61 6.26c0.27,2.7 0.12,4.35 -0.66,6.94 -0.63,2.37 -0.98,3.87 -2.65,5.65l-11.97 12.64c1.49,-2.58 2.08,-4.25 2.51,-7.2 0.44,-2.99 0.78,-4.93 -0.33,-7.7l-3.94 -9.98c-0.68,-1.63 -0.17,-2.76 0.1,-4.52 0.19,-1.43 0.34,-1.93 0.87,-3.65l-6.7 7.13c-1.64,1.79 -2.53,3 -3.31,5.35 -0.79,2.58 -1.13,4.34 -0.29,6.94l4.16 12.2c0.73,2.13 0.33,3.58 -0.19,5.73 -0.78,3.03 -1.93,4.62 -4.09,6.87l-11.94 12.67c1.52,-2.59 2.05,-4.25 2.49,-7.2 0.46,-3.03 0.79,-4.96 -0.37,-7.71l-3.89 -9.47c-0.68,-1.64 -0.14,-2.8 0.1,-4.54 0.22,-1.45 0.34,-1.96 0.9,-3.68l-6.72 6.96c-1.67,1.78 -2.53,3.02 -3.29,5.34 -0.84,2.58 -1.13,4.38 -0.28,6.94l4.15 12.23c0.7,2.13 0.29,3.55 -0.22,5.7 -0.78,3.02 -1.91,4.62 -4.09,6.89l-11.94 12.64c1.12,-1.96 1.58,-3.24 1.96,-5.49 0.46,-2.8 0.46,-4.57 -0.31,-7.32l-2.9 -10.42c-2.39,2.95 -3.92,4.52 -6.75,7.09 -3.74,3.29 -6.06,4.98 -10.39,7.49 -0.46,4.04 -1.31,6.4 -3.48,9.81 -2.69,4.25 -5.13,6.28 -9.53,8.66 -5.46,2.97 -9.52,3.77 -15.68,3.11 1.6,-3.02 2.03,-5.17 1.74,-8.58 -0.27,-2.99 -0.6,-5.05 -2.63,-7.27 -1.74,-1.96 -3.31,-2.81 -5.95,-3.19 0.53,1.35 0.8,2.1 1.31,3.48 0.63,1.74 0.94,2.71 1.58,4.44 -2.76,4.11 -4.62,6.29 -8.25,9.6 -3.6,3.29 -5.85,4.91 -10.11,7.23 -3.19,-0.13 -5.08,-0.19 -8.29,-0.34 -2.47,-0.09 -3.91,-0.68 -6.35,-0.29 -2.9,0.42 -4.43,1.26 -6.96,2.84 -3.31,2.1 -5.03,3.81 -7.1,7.17 -1.28,-4.13 -1.62,-6.67 -1.45,-10.99 0.33,-7.32 1.52,-12.18 6.35,-17.74 2.88,-3.31 5.08,-4.9 9.16,-6.65 -6.96,0.92 -11.19,3.24 -15.85,8.53 -3.31,3.87 -4.67,6.77 -5.68,11.77 -3.75,0.99 -5.85,1.86 -9.16,3.79 -4.33,2.42 -6.62,4.25 -9.84,7.93 -2.29,-4.01 -2.75,-7.28 -1.59,-11.72 0.75,-3.19 1.72,-5.05 4.09,-7.3 1.49,-1.43 2.51,-2.08 4.47,-2.87 1.69,-3.75 2.95,-5.78 5.68,-8.87 4.4,-5 7.79,-7.4 13.99,-9.84 -4.49,-0.55 -7.3,-0.17 -11.46,1.59 -4.05,1.72 -6.02,3.6 -8.89,6.99 -2.63,3.12 -3.82,5.3 -5,9.18 -3.92,1.13 -6.11,2.08 -9.57,4.14 -3.48,2.08 -5.34,3.53 -8.22,6.43 -1.71,-2.75 -2.13,-4.84 -1.88,-8.02 0.27,-3.68 1.62,-5.78 3.99,-8.56 2.47,-2.86 4.49,-4.21 8.06,-5.4 0.84,-6.04 2.29,-9.61 6.02,-14.5 3.64,-4.79 6.55,-7.2 12.03,-9.6 4.25,-1.88 6.96,-2.37 11.57,-2.56 6.91,-0.27 10.56,2.47 17.26,4.06 5.95,1.38 9.14,3.74 15.25,3.58 6.74,-0.22 11.02,-1.41 16.49,-5.4 5.09,-3.77 7.54,-7.05 9.66,-13.02 2.58,-0.99 3.99,-1.81 6.19,-3.48 2.54,-1.98 3.84,-3.36 5.68,-6.02 -4.44,2.1 -7.18,2.94 -12.03,3.79 -5.4,0.92 -8.61,1.02 -14.02,0.34 1.16,-1.43 1.81,-2.3 2.89,-3.82 5.78,-8.05 5.18,-14.77 10.46,-23.13 4.54,-7.15 7.14,-11.46 13.68,-16.82 9.47,-7.81 17.29,-8.77 29.15,-12.07 7.65,-2.1 12.44,-1.25 20.01,-3.79 3.91,-1.33 6.91,-1.16 9.79,-4.11 2.03,-2.1 3.11,-3.72 3.5,-6.6 0.29,-2.13 0.13,-3.51 -0.73,-5.54 4.98,-2.8 8.1,-3.91 13.68,-4.91 6.85,-1.23 11.07,-1.08 17.81,0.63 4.11,1.04 6.68,1.59 10.13,4.01 3.53,2.44 5.6,4.25 7.3,8.17 2.13,4.93 2.13,8.8 0,13.73 -5.15,3.06 -7.88,5.21 -12.04,9.53z"/>
       <g>
        <path class="fil0" d="M885.73 313.68c-0.51,-3.38 -0.92,-5.58 -3.04,-8.29 -2.18,-2.8 -5.18,-3.97 -7.52,-5 -2.25,-1.04 -6.86,-1.72 -9.33,-1.72l-2.88 0c-2.66,0 -4.23,0.13 -6.79,-0.63 -2.49,-0.68 -4.14,-0.99 -5.93,-2.83l-8.67 -9.19c1.21,0.53 2.08,0.71 3.46,0.94 1.21,0.22 1.88,0.32 3.07,0.32l12.42 0c2.74,0 4.28,0.29 6.94,0.97 1.96,0.46 3,0.82 4.89,1.58l-6.65 -10.62c-1.58,-2.47 -2.49,-4.01 -4.89,-5.68 -2.42,-1.69 -4.18,-2.53 -7.2,-2.53l-15.51 -0.01c-2.54,0 -4.21,0.18 -6.48,-0.97 -2.18,-1.11 -2.93,-2.48 -4.47,-4.37l-6.77 -8.53c1.52,0.82 2.51,1.06 4.18,1.44 1.43,0.32 2.23,0.48 3.65,0.48l13.61 0.01c3.31,0 5.22,0.46 8.36,1.45 2.32,0.74 3.63,1.25 5.8,2.43l-12.62 -16.49c-1.33,-1.71 -2.18,-2.69 -4.04,-3.74 -2.13,-1.21 -3.6,-1.67 -6.04,-1.67l-12.02 0c-2.34,0 -3.79,-0.05 -5.92,-1.02 -2.18,-0.94 -3.5,-1.76 -4.66,-3.79l-10.01 -16.82c8.12,0 12.95,-0.97 20.5,-4.11 8.77,-3.65 14.23,-6.48 19.75,-14.19 5.56,-7.8 7.35,-13.97 6.98,-23.54 -0.33,-8.05 -1.95,-12.91 -6.33,-19.65 -4.14,-6.43 -7.83,-9.21 -14.22,-13.34 -6.38,-4.16 -11.02,-4.59 -18.05,-7.62 -8,-3.48 -16.34,-1.35 -20.47,-9.04 -1.91,-3.62 -3.31,-6.4 -2.08,-10.29 1.21,-3.65 3.31,-5.78 6.91,-6.99 -8.56,-3.11 -15.01,-2.93 -23.4,0.73 -5.8,2.49 -9.57,4.57 -12.77,10.06 -3.45,6.05 -4.01,11.15 -1.91,17.74 -8.16,4.15 -12.57,6.91 -19.94,12.37 -10.18,7.54 -15.49,12.54 -23.66,22.21 7.88,-1.95 12.42,-2.8 20.47,-3.81 7.25,-0.88 11.41,-1.18 18.73,-1.26 -0.33,-4.16 0.22,-6.79 2.2,-10.46 3.58,-6.67 9.01,-10.01 16.59,-10.12 -3.31,1.3 -5.08,2.7 -7.15,5.6 -2.74,3.84 -4.59,7.45 -2.76,11.8 1.59,3.86 4.4,6.19 8.56,6.35 2.28,0.13 3.78,-0.29 5.73,-1.58 -0.6,-2.53 -0.55,-4.13 0.08,-6.67 1.74,-6.76 7.59,-10.97 14.58,-10.46 -2.18,1.08 -3.27,1.98 -4.84,3.79 -4.74,5.6 -5.3,12.86 -0.97,18.75 3.63,4.88 8.58,6.81 14.58,5.68 -0.92,-1.55 -1.23,-2.63 -1.28,-4.43 -0.03,-5.39 5.44,-8.6 10.83,-8.56 5.75,0 10.58,4.23 10.85,9.96 0.56,11.61 -9.38,10.73 -17.49,11.82 -5.27,0.68 -8.25,-1.13 -13.44,-2.15 -7.56,-1.4 -11.65,-3.03 -19.25,-4.42 -16.63,-3.1 -26.29,-4.67 -43.17,-3.82 -13.22,0.68 -20.54,2.89 -33.55,5.39 -21.02,4.06 -32.34,8.82 -53.32,13.02 -23.4,4.67 -36.69,8.9 -60.52,9.19 -25.52,0.28 -40.32,-1.74 -64.77,-8.9 2.63,4.66 3.65,7.71 4.49,13 0.46,2.95 0.41,4.67 0.41,7.64 -2.46,-5.99 -4.3,-9.23 -7.96,-14.59 -4.83,-7.2 -10.17,-9.36 -14.59,-16.83 -1.02,-1.81 -1.93,-2.73 -2.53,-4.74 -0.61,-2.15 -0.78,-3.53 -0.27,-5.73 0.36,-1.74 0.82,-2.7 1.88,-4.11 0,1.58 0.24,2.52 0.92,3.89 0.53,0.92 0.87,1.43 1.62,2.13l15.25 15.2c1.72,-10.49 1.38,-16.99 -1.53,-27.24 -2.19,-7.64 -4.14,-11.84 -8.66,-18.39 2.52,-6.86 3.31,-11.09 3.51,-18.39 0.12,-5.58 -0.2,-8.82 -1.5,-14.28 -3.34,1.98 -5.17,3.22 -8.31,5.56 -2.1,1.58 -3.7,2.1 -5.3,4.18 -1.86,2.42 -2.53,4.29 -2.97,7.3 -0.34,2.78 -0.18,4.49 0.68,7.18 -3.12,-1.93 -4.74,-3.7 -6.36,-7.01 -1.52,-3.14 -2.53,-5.44 -1.59,-8.82 0.73,-2.51 1.83,-3.84 3.82,-5.51 3.12,-2.65 6.19,-1.64 10.08,-2.97 3.64,-1.21 5.68,-1.98 9.23,-3.46 -0.17,-0.73 -0.34,-1.11 -0.6,-1.73 -0.34,-0.68 -0.58,-1.02 -0.99,-1.6 -5.27,-1.33 -8.49,-1.59 -13.97,-1.13 -3,0.27 -4.69,0.55 -7.56,1.38 -3.92,-4.44 -7.09,-6.5 -12.72,-8.24 -3.48,-1.09 -5.6,-1.38 -9.16,-1.28 -4.59,-4.01 -7.83,-5.78 -13.65,-7.37 -5.3,-1.45 -8.56,-0.83 -13.98,-0.83 -5.5,0 -8.75,-0.63 -14.04,0.83 -5.8,1.59 -9.11,3.36 -13.61,7.37 -3.63,-0.1 -5.75,0.19 -9.23,1.28 -5.6,1.74 -8.82,3.79 -12.67,8.24 -2.94,-0.82 -4.64,-1.11 -7.59,-1.38 -5.49,-0.46 -8.71,-0.19 -13.99,1.13 -0.34,0.58 -0.51,0.92 -0.85,1.5 -0.33,0.68 -0.51,1.08 -0.74,1.83 3.54,1.48 5.58,2.25 9.23,3.46 3.89,1.33 6.95,0.31 10.08,2.97 2.05,1.67 3.11,3 3.81,5.51 0.94,3.38 -0.09,5.68 -1.62,8.82 -1.62,3.31 -3.17,5.08 -6.35,7.01 0.89,-2.69 1.03,-4.4 0.68,-7.18 -0.41,-3.03 -1.11,-4.89 -2.98,-7.3 -1.59,-2.08 -3.16,-2.61 -5.24,-4.18 -3.14,-2.37 -5,-3.6 -8.31,-5.73 -1.26,5.5 -1.59,8.77 -1.53,14.45 0.18,7.3 1.02,11.53 3.58,18.39 -4.59,6.55 -6.55,10.76 -8.75,18.39 -2.88,10.25 -3.21,16.75 -1.43,27.24l15.18 -15.21c0.75,-0.7 1.09,-1.21 1.59,-2.13 0.68,-1.38 0.95,-2.32 0.95,-3.89 1.08,1.4 1.52,2.37 1.91,4.11 0.46,2.19 0.29,3.58 -0.29,5.73 -0.63,2 -1.5,2.92 -2.57,4.74 -4.39,7.47 -9.74,9.61 -14.57,16.82 -3.65,5.37 -5.44,8.63 -7.98,14.6 -0.94,-2.08 -1.23,-3.44 -1.28,-5.73 0,-2.15 0.27,-3.39 1.07,-5.39 -8.1,-4.69 -12.59,-7.64 -20.04,-13.29 -7.1,-5.44 -11.62,-8.2 -17.44,-14.94 -6.96,-7.92 -15.11,-12.67 -13.98,-23.13 0.61,-5.44 3.8,-7.64 5.83,-12.68 2.53,-6.29 5.92,-9.71 5.6,-16.49 -0.31,-7.25 -2.56,-11.99 -7.9,-16.82 0.38,-4.28 -0.18,-7.04 -2.28,-10.78 -2.8,-5.19 -6.28,-7.81 -12.06,-9.18 1.96,3.29 2.51,5.67 2.25,9.5 -0.2,3.4 -0.98,5.41 -2.84,8.24 1.98,2.69 2.63,4.89 2.54,8.27 -0.18,3.96 -1.45,6.57 -4.49,9.18 0.94,-5.3 0.33,-8.9 -2.2,-13.63 -2.63,-4.83 -5.34,-7.4 -10.41,-9.52 -1.53,-6.79 -7.06,-11.19 -14,-11.09 -4.15,0.04 -6.86,1.18 -9.81,4.1 3.69,0.47 6.11,1.96 8.19,5.08 1.18,1.74 1.72,2.98 1.96,5.1 -1.45,0.89 -2.13,1.54 -3.21,2.83 -1.28,1.64 -1.86,2.75 -2.52,4.76 5.39,0.27 8.87,1.98 12.32,6.04 3.68,4.19 4.84,8.12 4.19,13.61 -1.11,-3.24 -2.13,-5.04 -4.42,-7.59 -5.68,-6.21 -12.47,-8.29 -20.65,-6.26 -3.26,-3.5 -6.67,-4.8 -11.41,-4.52 -4.98,0.29 -8.31,2.2 -11.09,6.34 3.21,0.17 5.17,0.78 7.88,2.56 2.13,1.31 3.14,2.32 4.57,4.33 -1.35,1.62 -2.03,2.63 -2.94,4.54 -1.96,4.04 -2.54,6.89 -2.23,11.41 0.33,5 1.21,8.24 4.42,12.06 3.48,4.04 6.77,6.58 12.09,6.34 1.71,-0.08 2.75,-0.46 4.44,-0.97 1.86,-0.53 2.8,-2.03 4.74,-1.82 4.74,0.56 6.38,6.91 0,9.11 -1.69,0.58 -2.7,-0.56 -4.44,-0.94 -2.18,-0.48 -3.26,-1.48 -5.46,-1.26 -2.9,0.27 -4.59,1.58 -6.43,3.79 -1.96,2.3 -2.63,4.26 -2.69,7.3 -2.15,0.65 -3.6,0.65 -5.73,0 -1.59,-0.51 -2.53,-1.07 -3.82,-2.23 -1.08,4.14 -0.48,7.3 1.96,10.81 2.46,3.46 5.27,5.03 9.47,5.37 2.74,5.63 5.78,8.6 11.46,11.31 2.75,1.36 4.49,2.33 7.54,2.25 3.82,-0.13 5.51,-2.2 8.92,-3.79 2.27,-1.07 3.22,-2.57 5.73,-2.88 2.66,-0.34 4.42,0.13 6.62,1.59 3.14,2.05 4.54,4.74 4.43,8.49 -0.1,4.85 -3.65,7.44 -8.06,9.47 -3.31,1.57 -5.75,1.86 -9.33,1.16l7.88 7.37c2.74,2.47 4.4,3.79 7.71,5.32 3.48,1.57 5.78,2.39 9.57,2.39l1.5 -0.01c3.77,0 5.92,-0.03 9.52,0.89 3.92,0.97 6.55,1.31 9.33,4.09l8.17 7.96c-2.06,-0.75 -3.34,-0.99 -5.54,-1.33 -1.79,-0.32 -2.8,-0.47 -4.59,-0.47l-1.93 0c-4.15,0 -6.53,-0.48 -10.61,-1.38 -3.12,-0.68 -4.81,-1.16 -7.79,-2.28l12.88 12.26c2.63,2.52 4.33,3.82 7.64,5.32 3.55,1.59 5.75,2.42 9.57,2.42l1.53 0c3.72,0 5.92,-0.05 9.59,0.87 3.8,1.02 6.43,1.35 9.31,4.09l8.32 8c-2.03,-0.8 -3.31,-1.02 -5.51,-1.38 -1.79,-0.29 -2.8,-0.43 -4.57,-0.43l-2.57 0c-4.14,0 -6.53,-0.48 -10.58,-1.38 -3.14,-0.68 -4.84,-1.18 -7.81,-2.27l14.92 13.34c1.88,1.69 2.97,2.69 5.26,3.72 2.47,1.12 3.99,1.67 6.62,1.67l17.73 0c-15.01,8.39 -19,12.64 -32.15,19.36 -14.36,7.35 -21.95,17.21 -38.07,16.17 -6.21,-0.38 -9.41,-2.51 -15.5,-3.79 -3.99,-0.84 -6.19,-1.88 -10.17,-1.88 -5.34,-0.05 -8.77,0.37 -13.29,3.14 -3.48,2.1 -5.22,3.87 -7.3,7.32 4.06,-1.48 6.77,-1.72 11.1,-0.99 4.74,0.8 7.49,2.15 11.12,5.42 -3.58,-0.8 -5.6,-1.02 -9.26,-0.97 -7.15,0.12 -11.82,0.73 -17.72,4.76 -5.75,3.94 -9.23,7.49 -10.82,14.28 -0.88,3.84 -0.88,6.28 0,10.12 -1.79,1.33 -2.71,2.27 -4.09,4.04 -2.29,2.85 -4.06,4.71 -4.16,8.34 -0.07,3.68 1.02,6.24 3.82,8.66 1.36,-4.01 3.31,-6.29 6.96,-8.34 2.47,-1.38 4.14,-1.83 7.04,-1.88 1.01,0.84 1.59,1.28 2.8,1.88 1.52,0.82 2.43,1.16 4.14,1.59l3.5 -4.11c-0.61,-6.71 0.78,-11.33 5.08,-16.5 5.08,-6.17 10.76,-8.68 18.73,-8.25 -7.4,1.98 -11.79,5.92 -14.6,13 -1.76,4.29 -2.03,7.18 -1.25,11.75 -3.31,1.67 -5,3.46 -6.62,6.79 -2.47,5.22 -2.13,9.98 1.21,14.74 2.1,-3.69 3.87,-5.65 7.27,-8.24 3.89,-2.93 6.6,-4.11 11.37,-5.08 2.46,0.7 3.89,1.02 6.45,1.25 3.8,0.44 6.02,0.34 9.77,-0.28 -1.55,-2.86 -2.06,-4.72 -2.25,-7.93 -0.34,-7.76 2.99,-14.31 10.17,-17.14 3.07,-1.16 5.05,-1.43 8.25,-0.97 -3.31,0.94 -5.17,2.05 -7.55,4.47 -3.74,3.68 -6.04,7.2 -5.09,12.37 0.68,3.92 2.29,6.38 5.68,8.56 2.2,1.38 3.74,1.87 6.35,2.01 -0.03,1.98 -0.17,3.09 -0.68,5.05 -0.51,2.34 -1.01,3.65 -2.19,5.78 5.07,-0.53 8.14,-1.83 12.03,-5.08 2.78,-2.28 4.11,-3.89 5.75,-7.04 2.63,-0.73 4.15,-1.52 6.33,-3.29 4.49,-3.68 7.11,-7.74 6.21,-13.47 -0.51,-3.58 -1.67,-5.7 -4.3,-8.1 -0.53,-4.95 3.55,-9.45 8.56,-9.5 5.3,-0.07 9.33,5.32 8.56,10.54 -0.27,1.82 -0.68,2.8 -1.77,4.25l15.42 -0.19c2.37,-0.03 3.79,-0.37 5.92,-1.45 2.47,-1.23 3.82,-2.25 5.18,-4.57l6.19 -10.22c1.11,-1.88 1.95,-2.93 3.82,-4.18 1.68,-1.23 2.78,-2.13 4.9,-2.13l11.12 0.09c-1.28,0.83 -1.96,1.28 -3.03,2.37 -0.87,0.92 -1.43,1.5 -2.08,2.61l-5 8.44c-1.55,2.58 -2.88,3.79 -5.08,5.82 -1.58,1.55 -2.56,2.3 -4.33,3.54l18.39 -0.29c2.47,-0.03 3.89,-0.39 6.02,-1.43 2.37,-1.23 3.74,-2.33 5.17,-4.59l13.05 -20.35c-2.83,-2.46 -12.03,-6.94 -14.74,-14.53 -1.21,-3.26 -1.62,-5.32 -1.44,-8.77 0.09,-2.9 0.6,-4.54 1.62,-7.3 0.92,-2.66 2.29,-3.84 3.14,-6.55 0.68,-2.08 1.02,-3.29 1.09,-5.49 0,-1.69 -0.08,-2.7 -0.51,-4.35l6.75 3.63c1.57,0.9 2.42,1.72 3.36,3.31 0.92,1.65 1.13,2.86 1.01,4.72 -0.09,1.96 -0.94,2.9 -1.52,4.74 -1.07,3.03 -2.39,4.54 -2.74,7.66 -0.31,3.24 -0.24,5.27 1.12,8.24 1.62,3.75 4.23,4.86 7.44,7.45 4.09,3.31 6.8,4.89 11.63,6.91l0 -29.15 10.74 0.02 0 26.95c0,2.42 0.27,3.96 1.55,6.02 1.02,1.81 1.93,2.89 3.79,3.81l8.58 4.11c3.04,1.48 5.22,1.48 8.56,1.26 2.7,-0.14 4.23,-0.48 6.7,-1.55l15.44 -6.7c-1.96,0.29 -3.14,0.17 -5.1,-0.33 -2.13,-0.56 -3.07,-1.58 -5.03,-2.63l-19.99 -10.68c2.39,-1.93 3.49,-4.04 4.4,-7.2 0.87,-2.66 0.87,-4.38 0.7,-7.15 -0.27,-2.66 -1.04,-4.04 -1.62,-6.67 -0.39,-1.59 -0.93,-2.44 -0.93,-4.11 -0.09,-1.62 0,-2.61 0.58,-4.11 0.55,-1.25 0.84,-2.13 2.03,-2.88l8.56 -5.68c-0.23,1.43 -0.33,2.28 -0.33,3.8 0,1.88 0.27,2.92 0.63,4.76 0.48,2.29 1.33,3.43 1.92,5.7 0.6,2.44 0.94,3.84 0.94,6.34 0.09,4.84 -0.73,7.73 -2.86,12.06l20.65 11.43c2.05,1.14 3.34,1.74 5.7,1.98 2.27,0.22 3.63,0.1 5.75,-0.73l19 -7.4c-2.01,0.24 -3.24,0.17 -5.09,-0.33 -2.2,-0.58 -3.14,-1.53 -5.08,-2.61l-19.65 -10.81c-1.21,-0.63 -1.96,-0.78 -3.17,-1.26 -1.35,-0.53 -2.1,-0.82 -3.55,-1.28 0.95,-1.36 1.12,-2.3 1.63,-3.8 0.74,-2.18 1.18,-3.43 1.59,-5.7 0.94,-5.24 0.33,-8.38 -0.68,-13.65 -0.92,-5.32 -3.46,-7.85 -4.33,-13.2 -0.51,-1.59 -0.68,-2.51 -0.58,-4.13 0.03,-1.55 -0.27,-2.93 0.92,-3.89l10.36 -8.7c-0.27,1.62 -0.36,2.53 -0.27,4.13 0,1.26 0.03,1.98 0.27,3.19 0.51,2.49 1.59,3.68 2.53,6.02 1.02,2.49 1.6,3.92 2.54,6.45 1.69,-1.64 2.61,-2.66 4.1,-4.54 2.59,-3.29 4.11,-5.24 5.37,-9.18 1.11,-3.27 1.45,-5.27 1.31,-8.71 -0.27,-3.5 -0.53,-5.75 -2.47,-8.66l-5.13 -7.59c-1.23,-1.88 -1.66,-3.26 -1.83,-5.5 -0.27,-2.95 0.61,-4.67 1.83,-7.42l5.13 -11.8c-0.68,2.15 -0.87,3.54 -0.61,5.78 0.22,1.64 0.44,2.61 1.18,4.06l4.09 7.65 5.24 6.91 5.17 11.99c0.75,4.28 0.75,6.91 0,11.22 -1.03,5.37 -2.8,8.1 -5.6,12.78 -4.57,7.71 -12.78,14.19 -15.58,16.94 0,0 0.29,2.25 0.27,3.7 -0.1,3.58 -0.78,5.6 -2.2,8.9l26.59 14.26c2.13,1.13 3.4,1.76 5.73,1.98 2.24,0.24 3.79,0.38 5.82,-0.73l12.98 -6.94c-1.88,0.65 -3.34,0.55 -5.1,-0.34 -2.01,-0.97 -2.7,-2.34 -3.48,-4.42 -1.86,-5 1.93,-9.96 6.3,-12.04 17.77,-8.58 36.33,-15.01 59,-25.62 25.47,-11.92 38.18,-22.31 64.38,-32.59 14.14,-5.53 21.73,-12.32 36.96,-12.3 9.45,0.03 15.76,-0.24 23.78,4.85 3.89,2.44 6.15,4.11 8.68,7.93 2.27,3.34 2.93,5.68 3.82,9.57 2.19,9.36 -4.19,14.87 -3.19,24.43 1.18,10.69 3.24,17.45 10.17,25.67 5.78,6.86 11.07,8.77 18.95,13 5.3,2.88 9.84,2.05 14.04,6.36 1.98,2.03 3.34,3.26 4.11,6.01 0.63,2.28 0.63,3.78 0,6.02 4.39,0.15 6.98,-0.31 11.09,-1.91 6.19,-2.37 9.6,-5.03 13.32,-10.44l17.1 -0.01c1.67,2.88 2.18,4.86 2.25,8.17 0.04,3.74 0,6.53 -2.53,9.26 -2.63,2.8 -5.51,2.58 -9.28,3.19 -5.27,0.8 -8.32,-1.48 -13.66,-1.28 -5.97,0.22 -9.86,-0.07 -15.13,2.85 -5.9,3.31 -8.8,6.94 -11.12,13.32 -1.45,4.24 -1.76,6.96 -1.26,11.43 -2.42,1.53 -3.64,2.88 -5.07,5.4 -2.76,4.95 -2.76,9.61 0,14.58 2.7,-3.14 4.49,-4.72 7.95,-6.96 2.78,-1.82 4.49,-2.69 7.59,-3.79 0.38,-9.16 4.93,-15.73 13.32,-19.39 4.91,-2.08 8.44,-2.42 13.66,-1.26 -6.11,1.31 -9.71,3.34 -13.95,7.93 -5.44,5.9 -7.44,11.33 -6.98,19.36 -1.74,2.37 -2.29,4.32 -2.13,7.27 0.22,3.14 1.13,5.13 3.38,7.3 4.33,-7.1 9.06,-10.63 17.14,-12.67 4.09,-1.07 6.6,-1.21 10.81,-0.63 -1.83,-6.89 -0.68,-12.27 3.77,-17.76 4.69,-5.78 10.18,-8.05 17.53,-7.3 -4.35,1.23 -6.89,2.98 -9.62,6.65 -2.48,3.49 -3.84,6.21 -3.45,10.49 0.41,4.74 2.32,7.88 6.35,10.46 -0.17,2.35 0.05,3.79 0.92,6 0.99,2.35 1.96,3.6 3.92,5.17 0.68,-3.34 1.69,-5.26 4.06,-7.7 1.66,-1.74 2.87,-2.49 5.03,-3.46 3.57,-1.62 6.06,-0.56 9.88,-1.28 6.35,-1.21 11.02,-0.48 15.83,-4.76 3.55,-3.16 5.41,-5.87 6.09,-10.63 0.9,-6.04 -0.87,-10.71 -5.46,-14.74 0.97,-6.24 1.18,-9.86 0.97,-16.19 -0.24,-6.6 -0.78,-10.34 -2.34,-16.77l2.01 0c2,0 2.46,0.27 5.12,0.94 1.93,0.46 4.21,2.53 5.56,5.17 0.97,-3.62 1.08,-5.85 0.51,-9.55l0 0zm-409.92 -170.11c-0.19,2.8 -1.11,5.03 -3.24,7.37 -2.28,2.52 -4.16,4.02 -7.2,4.02l-7.54 -0.01c1.95,1.93 3.54,3.44 3.54,6.53 0,3.97 -3.21,7.18 -7.2,7.18 -3.99,0 -7.2,-3.21 -7.2,-7.18 0,-2.05 0.84,-3.87 2.19,-5.15l1.36 -1.38 -8.21 0c-1.86,0 -2.98,1.02 -4.4,2.52l0 -2.08c0,-1.25 -0.09,-2.34 0,-3.36 0.18,-2.13 2.13,-4.54 4.4,-4.54l24.07 0.01c3.31,0 7.03,-1.53 9.42,-3.92l0 0zm-26.01 -29.08c1.31,0 2.08,0.29 3.19,0.92 1.13,0.63 1.69,1.18 2.53,2.23l7.81 10.15c0.58,0.7 0.68,1.28 1.25,1.91 0.88,0.75 1.5,1.04 2.56,1.26l-6.33 0c-1.91,0 -3.07,-0.32 -4.79,-1.26 -1.59,-0.98 -2.29,-1.95 -3.46,-3.5l-6.3 -8.25c-0.53,-0.74 -0.82,-1.25 -1.5,-1.91 -0.84,-0.74 -1.38,-1.08 -2.32,-1.54l7.35 0zm-25.45 -3.84c1.83,0 2.98,0.61 4.57,1.59 1.35,0.88 2.1,1.5 3.04,2.88l9.23 13.29c0.61,0.8 0.95,1.23 1.63,1.91 1.11,1.04 1.86,1.58 3.21,2.23l-8.46 0.01c-1.96,0 -3.27,-0.39 -4.84,-1.6 -1.23,-0.94 -1.58,-1.86 -2.37,-3.16l-7.64 -11.75c-0.75,-1.18 -1.18,-1.88 -2.23,-2.85 -1.43,-1.33 -2.43,-1.93 -4.25,-2.53 0,-0.01 8.1,-0.01 8.1,-0.01zm-21.03 3.84c1.28,0 2.03,0.29 3.12,0.92 1.18,0.63 1.78,1.18 2.56,2.23l7.88 10.15c0.51,0.7 0.61,1.28 1.26,1.91 0.78,0.75 1.45,1.04 2.51,1.26l-6.3 0c-1.96,0 -3.14,-0.32 -4.74,-1.26 -1.72,-0.98 -2.39,-1.95 -3.54,-3.5l-6.23 -8.25c-0.58,-0.74 -0.94,-1.25 -1.63,-1.91 -0.79,-0.74 -1.35,-1.08 -2.29,-1.54l7.4 0zm-9.01 33l24.01 0c1.44,0 2.29,0.68 3.4,2.01 1.48,1.71 1.02,3.81 1.02,5.9l-0.22 1.78c-1.23,-1.21 -2.25,-2.22 -4.2,-2.22l-8.22 -0.01c2.05,1.93 3.58,3.44 3.58,6.53 0,3.97 -3.24,7.18 -7.18,7.18 -3.94,0 -7.15,-3.21 -7.15,-7.18 0,-2.05 0.75,-3.87 2.13,-5.15l1.43 -1.38 -7.54 0c-3.14,0 -4.91,-1.49 -7.2,-4.01 -2.13,-2.34 -3.14,-4.57 -3.24,-7.37 2.3,2.39 6.05,3.92 9.41,3.92l0 0zm-9.98 131.33l-2.88 8.25c-0.84,2.39 -0.94,3.89 -1.38,6.43 -0.78,5.17 -0.92,8.22 -0.53,13.44 -1.58,-1.26 -2.42,-2.1 -3.77,-3.65 -1.45,-1.57 -2.03,-2.58 -3.22,-4.34 -2.63,-4.04 -3.74,-6.6 -5.34,-11.02l-0.34 -1.43c-4.69,-1.45 -11.96,-1.93 -15.93,-6.96 -3.68,-4.59 -4.01,-8.41 -4.84,-14.16 -0.77,-4.81 -0.77,-7.69 0,-12.47l4.49 -13.29 4.54 -7.66 3.58 -8.53c0.68,-1.64 0.85,-2.73 1.02,-4.54 0.24,-2.46 0.13,-3.96 -0.51,-6.35l6.29 9.61c1.52,2.35 1.59,4.16 1.59,6.96 0.05,2.93 -0.17,4.76 -1.59,7.37l-6.29 11.89c-1.78,3.41 -1.96,5.8 -2.13,9.65 -0.17,3.77 -0.58,6.24 1.07,9.64 2.52,5.19 6.48,7.9 12.26,8.22 0.07,-2.44 0.17,-3.82 0.63,-6.24 0.48,-2.69 1.4,-4.06 1.83,-6.77 0.18,-1.21 0.24,-1.91 0.34,-3.14 0,-1.63 -0.1,-2.52 -0.34,-4.14l10.42 14.91c1.11,1.48 1.18,2.71 1.28,4.54 0.17,1.47 0.17,2.37 -0.27,3.79l0 0zm103.37 -103.78c-1.98,3.58 -3.69,5.41 -6.99,7.93 -3.48,2.63 -6.11,3.02 -10.12,4.74 -0.89,0.38 -1.49,0.37 -2.25,0.97 -0.84,0.82 -0.84,1.72 -1.28,2.85 -0.61,1.79 -0.34,2.95 -0.94,4.76 -0.75,2.37 -1.26,3.79 -2.83,5.7 -2.18,2.53 -4.04,3.74 -7.33,4.52 -0.04,4.69 -0.26,7.32 -0.84,11.97 -0.68,5.65 -1.38,8.77 -2.85,14.26 0.89,1.77 1.3,2.78 1.91,4.69 0.94,3 1.23,4.86 1.11,8.03 -0.17,4.39 -0.43,7.39 -3.14,10.87 -5.25,6.75 -13.28,2.29 -21.78,2.29 -8.58,0 -16.63,4.45 -21.87,-2.29 -2.71,-3.48 -2.98,-6.48 -3.14,-10.87 -0.1,-3.17 0.19,-5.03 1.08,-8.03 0.61,-1.91 1.04,-2.92 1.96,-4.69 -1.52,-5.49 -2.1,-8.61 -2.88,-14.26 -0.6,-4.64 -0.77,-7.28 -0.84,-11.97 -3.31,-0.78 -5.17,-1.98 -7.3,-4.52 -1.59,-1.91 -2.13,-3.34 -2.87,-5.7 -0.58,-1.81 -0.34,-2.97 -0.92,-4.76 -0.44,-1.13 -0.37,-2.03 -1.28,-2.85 -0.68,-0.6 -1.35,-0.58 -2.23,-0.97 -4.06,-1.72 -6.67,-2.1 -10.15,-4.74 -3.31,-2.52 -5,-4.35 -6.96,-7.93 -2.27,-4.06 -3.55,-6.81 -3.21,-11.43 0.24,-2.61 0.33,-3.26 1.02,-5.78 0.38,-1.3 1.18,-2.85 1.78,-4.04 0.73,-1.43 1.43,-2.08 2.53,-3.16 1.18,-1.18 2.03,-1.74 3.49,-2.54l0 13.12c0,4.89 0.92,7.98 3.79,11.92 2.63,3.64 5.12,5.09 9.26,6.98 3.97,1.87 6.6,2.47 11.1,2.52 -0.34,3.09 -0.18,4.95 0.6,7.96 0.84,3.02 1.11,5.24 3.48,7.27 2.37,2.01 4.52,2.1 7.61,2.23 2.98,0.13 4.76,-0.24 7.47,-1.5 2.1,-0.98 4.49,-1.25 4.93,-3.58 0.15,-0.97 0,-1.57 -0.36,-2.53 -0.61,-2.01 -2.27,-2.43 -3.39,-4.2 -0.92,-1.53 -1.52,-2.44 -2.03,-4.21 -0.53,-1.54 -0.94,-2.56 -0.68,-4.18 0.14,-1.28 -0.1,-3.03 1.18,-3.03l17.54 0c1.26,0 1.02,1.74 1.23,3.03 0.29,1.64 -0.22,2.63 -0.73,4.18 -0.51,1.77 -1.07,2.69 -2.03,4.21 -1.12,1.76 -2.81,2.19 -3.41,4.2 -0.29,0.97 -0.51,1.58 -0.34,2.53 0.43,2.33 2.8,2.59 4.93,3.58 2.71,1.26 4.48,1.63 7.45,1.5 3.14,-0.13 5.27,-0.22 7.64,-2.23 2.37,-2.03 2.66,-4.25 3.49,-7.27 0.84,-3 0.92,-4.86 0.68,-7.96 4.39,-0.05 7.03,-0.65 11.05,-2.52 4.13,-1.88 6.57,-3.34 9.21,-6.98 2.88,-3.94 3.82,-7.04 3.82,-11.92l0 -13.12c1.45,0.8 2.27,1.36 3.48,2.54 1.13,1.08 1.86,1.73 2.53,3.16 0.61,1.18 1.43,2.74 1.79,4.04 0.75,2.52 0.8,3.17 1.01,5.78 0.34,4.62 -0.93,7.37 -3.19,11.43z"/>
       </g>
       <g>
        <path class="fil0" d="M950.41 332.42c6.21,-15.62 14.22,-30.87 24.63,-47.4 12.96,-20.67 31.15,-38.29 55.28,-44.57l3.6 7.25c-6.57,5.22 -6.91,11.66 -4.81,19.36 4.59,16.89 20.35,21.71 35.43,16.12 17.48,-6.45 24.97,-26.34 22.91,-43.87 -7.64,-33.15 -49.14,-34.34 -73.86,-20.52 -34.41,19.22 -56.12,75.54 -62.6,110.51l-0.58 3.12zm70.44 -80.01c-22.82,10.59 -36.55,32.54 -48.35,53.71 -19.26,34.44 -25.67,57.06 -30.77,96.39 -6.09,46.77 1.84,127.47 13.66,171.29 21.81,80.58 36.23,124.6 108.81,185.17l12.55 49.65c-8.87,39.81 -16.05,61.56 -32.78,98.64 -14.62,32.39 -23.41,51.38 -45.27,79.95 -21.58,28.21 -36.01,43.53 -64.99,64.37 -38.84,27.94 -66.47,36.21 -111.85,49.04 -36.74,10.44 -59.68,11.72 -97.16,21.9 -54.7,14.84 -87.91,23.81 -135.14,57.19 -15.3,10.81 -28.02,21.68 -41.53,34.64 -30.62,-29.34 -64.77,-53.44 -104.24,-69.59 -27.17,-11.12 -43.89,-14.5 -72.41,-22.24 -37.49,-10.17 -60.43,-11.46 -97.16,-21.9 -45.37,-12.83 -73.05,-21.1 -111.89,-49.04 -28.98,-20.84 -43.41,-36.16 -64.99,-64.37 -21.85,-28.58 -30.64,-47.57 -45.27,-79.96 -16.73,-37.07 -23.88,-58.83 -32.75,-98.64l12.55 -49.64c44.54,-37.18 65.5,-64.8 88.41,-118.05 9.4,-21.85 14.88,-43.96 20.35,-67 9.74,-41.12 13.01,-65.07 14.73,-107.27 1.01,-25.02 2.19,-39.32 -1.02,-64.15 -5.8,-44.79 -16.56,-75.34 -40.29,-113.09 -9.26,-14.72 -22.81,-29.59 -38.82,-37.01 2.23,6.26 1.28,11.12 -0.29,16.85 -5.87,21.61 -26.63,28.93 -46.29,21.67 -24.02,-8.91 -33.09,-37.92 -26.61,-60.93 8.22,-29.17 21.05,-39.32 40.65,-60.23 13.8,-14.77 30.7,-25.69 45.18,-39.72 31.01,-30.06 47.91,-47.76 67.26,-88.63 55.99,15.18 87.45,9.77 141.78,-4.83 35,-9.41 53.78,-21.54 89.84,-28.69 26.59,-5.29 45.85,-7.9 69.04,-7.9 32.96,0 66.15,11.72 92.25,31.71 26.11,-19.99 59.3,-31.71 92.26,-31.71 23.18,0 42.44,2.61 69.01,7.9 36.08,7.15 54.83,19.29 89.86,28.69 54.13,14.55 85.97,19.96 141.77,4.83 21.81,46.07 50.62,76.55 89.8,107.85 19.14,15.3 48.41,42.9 57.71,65.77 2.74,6.74 5.08,13.34 6.44,19.94 0.23,0.85 0.46,1.72 0.68,2.58 1.54,10.64 0.63,21.21 -5.35,32.3 -5.53,10.25 -11.28,16.79 -22.79,21.07 -19.63,7.25 -40.42,-0.07 -46.31,-21.67 -1.53,-5.72 -2.49,-10.58 -0.27,-16.84l0 0zm-989.78 543.51c29.24,-28.61 53.34,-61.92 69.75,-99.43 -15.68,24.38 -34.35,44.25 -61.59,67.12l-8.16 32.31zm114.46 -463.98l-0.46 -2.63c-7.8,-42.08 -35.91,-113.9 -88.06,-118.62 -20.59,-1.87 -41.93,5.49 -47.92,26.75 -1.79,9.33 -1.26,18.69 4.04,28.5 4.88,9.09 9.31,13.89 18.37,17.25 15.1,5.59 30.86,0.78 35.46,-16.12 2.1,-7.71 1.76,-14.14 -4.81,-19.36l3.6 -7.25c32.49,8.43 49.62,33.98 65.04,61.63 6.02,10.78 10.83,20.47 14.74,29.85l0 0zm922.42 478.18c-37.22,-34 -67.1,-75.1 -85.15,-122.3 -5.97,-15.68 -10.92,-32 -18.23,-52.83l0.34 -0.13c-6.16,-17.74 -11.56,-37.05 -17.48,-58.9 -11.09,-41.07 -18.8,-114.13 -15.1,-162.57 1.13,-31.54 4.76,-54.36 10.51,-85.56 8.63,-46.55 38.91,-120.27 95.42,-125.4 14.19,-1.25 28.4,1.38 39.28,8.63 -7.45,-13.19 -17.26,-21.81 -30.19,-35.62 -13.71,-14.65 -30.55,-25.52 -44.9,-39.45 -28.58,-27.7 -48.11,-47.61 -66.03,-84.79 -52.88,13.93 -88.3,7.13 -139.41,-6.62 -34.81,-9.33 -53.44,-21.44 -89.31,-28.57 -25.93,-5.17 -44.79,-7.74 -67.41,-7.74 -34.61,0 -65.41,12.86 -92.26,33.96 -15.4,-12.09 -23.91,-17.43 -42.15,-24.34 -18.75,-7.05 -31.76,-9.62 -50.11,-9.62 -22.65,0 -41.45,2.57 -67.41,7.74 -35.86,7.13 -54.53,19.24 -89.31,28.57 -51.12,13.75 -86.53,20.55 -139.41,6.62 -20.62,42.76 -52.52,75.29 -89.16,104.56 -15.78,12.6 -40,35 -51.41,54.75 18.85,-12.13 47.15,-10.22 67.43,1.06 36.83,20.6 59.67,78.48 66.68,116.26 5.75,31.19 9.4,53.95 10.63,85.45 1.62,18.69 0.65,32.41 -0.24,53.73 -1.96,48.77 -10.11,96.55 -23.56,143.4 -2.29,8 -4.91,15.88 -8.43,24.8 -12.64,36.23 -22.67,69.54 -43.09,102.21 -19.55,31.32 -33.6,48.24 -60.38,72.68 12.96,56.99 40.19,125.54 75.8,172.08 21.2,27.73 35.07,42.44 63.25,62.7 37.62,27.05 64.08,34.98 109.3,47.81 36.68,10.41 59.62,11.7 97.06,21.85 56.03,15.2 89.33,24.19 137.75,58.42 15.23,10.76 23.96,17.84 36.76,29.97 29.29,-27.78 63.72,-50.54 101.11,-65.84 27.53,-11.26 44.47,-14.72 73.4,-22.55 37.44,-10.15 60.35,-11.43 97.04,-21.85 45.25,-12.84 71.71,-20.76 109.33,-47.81 28.15,-20.25 42.05,-34.97 63.25,-62.7 35.61,-46.55 62.81,-115.07 75.8,-172.07l0 0zm-70.21 -108.94c4.79,10.73 10.22,21.31 16.77,31.83 16.97,27.27 29.56,43.22 50.57,63.16l-8.24 -32.55c-26.18,-21.95 -44.86,-41.98 -59.1,-62.43z"/>
       </g>
      </g>
     </g>
    </g>
   </g>
  </g>
 </g>
</svg>
